<svg width="38" height="39" viewBox="0 0 38 39" fill="none" xmlns="http://www.w3.org/2000/svg">
<rect x="0.0668945" y="0.0908203" width="37.6901" height="38.8322" rx="11.4212" fill="white"/>
<g clip-path="url(#clip0_415_29)">
<rect x="6.34863" y="6.94336" width="25.1267" height="25.1267" rx="5.71062" fill="white"/>
<path d="M31.4624 19.7423C31.4624 18.7129 31.3769 17.9616 31.1919 17.1826H19.1626V21.8289H26.2236C26.0812 22.9836 25.3125 24.7225 23.6042 25.891L23.5802 26.0466L27.3837 28.9259L27.6472 28.9516C30.0673 26.7675 31.4624 23.554 31.4624 19.7423Z" fill="#3792DE"/>
<path d="M19.1625 31.9839C22.6218 31.9839 25.5259 30.871 27.6471 28.9513L23.6041 25.8907C22.5222 26.628 21.0701 27.1427 19.1625 27.1427C15.7744 27.1427 12.8987 24.9587 11.8737 21.9399L11.7234 21.9524L7.76852 24.9434L7.7168 25.0838C9.82369 29.1737 14.1514 31.9839 19.1625 31.9839Z" fill="#34A853"/>
<path d="M11.8736 21.9396C11.6031 21.1606 11.4466 20.3258 11.4466 19.4634C11.4466 18.6008 11.6031 17.7662 11.8593 16.9871L11.8522 16.8212L7.84773 13.7822L7.71671 13.8431C6.84836 15.5403 6.3501 17.4462 6.3501 19.4634C6.3501 21.4805 6.84836 23.3863 7.71671 25.0835L11.8736 21.9396Z" fill="#FBBC05"/>
<path d="M19.1625 11.7845C21.5683 11.7845 23.1912 12.8 24.1166 13.6486L27.7325 10.1986C25.5117 8.18147 22.6218 6.94336 19.1625 6.94336C14.1514 6.94336 9.82369 9.75343 7.7168 13.8433L11.8594 16.9873C12.8987 13.9686 15.7744 11.7845 19.1625 11.7845Z" fill="#EB4335"/>
</g>
<defs>
<clipPath id="clip0_415_29">
<rect x="6.34863" y="6.94336" width="25.1267" height="25.1267" rx="5.71062" fill="white"/>
</clipPath>
</defs>
</svg>
