<svg width="39" height="39" viewBox="0 0 39 39" fill="none" xmlns="http://www.w3.org/2000/svg">
<rect x="0.0361328" y="0.933594" width="38" height="38" rx="19" transform="rotate(0.064638 0.0361328 0.933594)" fill="#1E1F1E"/>
<path d="M14.826 9.95015L23.226 9.95962C26.426 9.96323 29.0231 12.5662 29.0194 15.7662L29.01 24.1662C29.0082 25.7044 28.3955 27.179 27.3066 28.2655C26.2176 29.3519 24.7417 29.9613 23.2034 29.9596L14.8034 29.9501C11.6034 29.9465 9.00637 27.3436 9.00998 24.1436L9.01946 15.7436C9.02119 14.2053 9.63393 12.7308 10.7229 11.6443C11.8118 10.5578 13.2877 9.94841 14.826 9.95015ZM14.6237 11.9499C13.669 11.9488 12.7529 12.3271 12.077 13.0015C11.4011 13.6758 11.0208 14.5911 11.0197 15.5459L11.0098 24.3458C11.0075 26.3358 12.6157 27.9477 14.6057 27.9499L23.4057 27.9598C24.3605 27.9609 25.2766 27.5827 25.9525 26.9083C26.6284 26.2339 27.0087 25.3187 27.0097 24.3639L27.0197 15.5639C27.0219 13.5739 25.4137 11.9621 23.4237 11.9598L14.6237 11.9499ZM24.272 13.4608C24.6036 13.4612 24.9214 13.5932 25.1555 13.8279C25.3897 14.0626 25.521 14.3807 25.5206 14.7122C25.5203 15.0437 25.3882 15.3615 25.1535 15.5957C24.9188 15.8298 24.6007 15.9612 24.2692 15.9608C23.9377 15.9604 23.6199 15.8284 23.3858 15.5937C23.1516 15.359 23.0203 15.0409 23.0206 14.7094C23.021 14.3779 23.1531 14.0601 23.3877 13.8259C23.6224 13.5918 23.9405 13.4604 24.272 13.4608ZM19.0204 14.9549C20.3464 14.9564 21.6176 15.4846 22.5542 16.4233C23.4909 17.3621 24.0162 18.6344 24.0147 19.9605C24.0132 21.2866 23.485 22.5578 22.5463 23.4944C21.6075 24.431 20.3352 24.9564 19.0091 24.9549C17.683 24.9534 16.4118 24.4252 15.4752 23.4864C14.5386 22.5477 14.0132 21.2753 14.0147 19.9492C14.0162 18.6232 14.5444 17.352 15.4832 16.4154C16.4219 15.4787 17.6943 14.9534 19.0204 14.9549ZM19.0181 16.9549C18.2224 16.954 17.459 17.2692 16.8958 17.8312C16.3325 18.3931 16.0156 19.1558 16.0147 19.9515C16.0138 20.7471 16.329 21.5106 16.891 22.0738C17.453 22.637 18.2157 22.954 19.0113 22.9549C19.807 22.9558 20.5704 22.6406 21.1336 22.0786C21.6969 21.5166 22.0138 20.7539 22.0147 19.9583C22.0156 19.1626 21.7004 18.3992 21.1384 17.836C20.5765 17.2727 19.8137 16.9558 19.0181 16.9549Z" fill="#F8F8F8"/>
</svg>
