<svg width="38" height="40" viewBox="0 0 38 40" fill="none" xmlns="http://www.w3.org/2000/svg">
<path d="M30.3332 12.6087C29.4747 12.9811 28.5668 13.2273 27.6378 13.3396C28.6179 12.7541 29.3524 11.8329 29.705 10.747C28.784 11.2953 27.7757 11.6816 26.7241 11.8891C26.0212 11.1269 25.0851 10.6194 24.0627 10.4465C23.0403 10.2735 21.9895 10.4448 21.0749 10.9334C20.1603 11.422 19.4338 12.2004 19.0093 13.1464C18.5848 14.0925 18.4863 15.1526 18.7292 16.1607C16.8669 16.0665 15.0452 15.5816 13.3825 14.7374C11.7199 13.8933 10.2533 12.7088 9.07827 11.261C8.66612 11.9807 8.44956 12.7958 8.45011 13.6252C8.44864 14.3954 8.63766 15.154 9.00033 15.8335C9.363 16.513 9.88806 17.0923 10.5288 17.5198C9.78408 17.4996 9.0553 17.2997 8.40442 16.9373V16.9944C8.41 18.0736 8.78817 19.1178 9.47495 19.9502C10.1617 20.7827 11.115 21.3524 12.1734 21.5629C11.766 21.6869 11.343 21.7523 10.9171 21.7571C10.6223 21.7537 10.3282 21.7269 10.0377 21.6771C10.3391 22.6055 10.9224 23.4168 11.7064 23.9981C12.4904 24.5795 13.4361 24.902 14.412 24.9208C12.7641 26.2174 10.7297 26.925 8.63285 26.9309C8.25107 26.9322 7.86961 26.9093 7.49072 26.8624C9.63155 28.2446 12.1264 28.9784 14.6747 28.9753C16.4332 28.9936 18.1777 28.6612 19.8064 27.9977C21.435 27.3342 22.9151 26.3529 24.1602 25.1109C25.4054 23.869 26.3905 22.3914 27.0582 20.7645C27.7259 19.1375 28.0627 17.3939 28.0489 15.6353C28.0489 15.4412 28.0489 15.2356 28.0489 15.03C28.9452 14.3616 29.7181 13.5423 30.3332 12.6087Z" fill="#4EA9DC"/>
</svg>
