<svg width="39" height="39" viewBox="0 0 39 39" fill="none" xmlns="http://www.w3.org/2000/svg">
<rect x="0.0360107" y="0.0554199" width="38" height="38" rx="19" transform="rotate(0.064638 0.0360107 0.0554199)" fill="#1E1F1E"/>
<path d="M29.4813 13.0885C28.7109 13.4377 27.8807 13.6667 27.0206 13.7758C27.9011 13.2468 28.5821 12.4075 28.9032 11.3979C28.0727 11.897 27.1523 12.2459 26.1821 12.4448C25.393 11.5839 24.2836 11.0827 23.0236 11.0813C20.6736 11.0786 18.7514 12.9964 18.7488 15.3664C18.7484 15.7064 18.788 16.0365 18.8576 16.3466C15.2979 16.1625 12.1298 14.449 10.0227 11.8566C9.652 12.4862 9.44116 13.2259 9.44028 14.0059C9.4386 15.4959 10.1871 16.8168 11.3463 17.5681C10.6363 17.5673 9.97649 17.3665 9.39683 17.0659L9.3968 17.0959C9.39445 19.1759 10.8725 20.9176 12.832 21.3098C12.2026 21.4813 11.5419 21.5045 10.902 21.3776C11.1726 22.2304 11.7037 22.9769 12.4206 23.5122C13.1375 24.0476 14.0041 24.3448 14.8986 24.3621C13.3809 25.5608 11.5005 26.2076 9.56653 26.1961C9.22653 26.1957 8.88655 26.1753 8.5466 26.1349C10.4452 27.3571 12.7044 28.0696 15.1244 28.0724C23.0044 28.0812 27.3418 21.5461 27.3482 15.8761C27.3484 15.6861 27.3486 15.5061 27.3388 15.3161C28.1795 14.7171 28.9003 13.9579 29.4813 13.0885Z" fill="#F8F8F8"/>
</svg>
