<svg width="39" height="39" viewBox="0 0 39 39" fill="none" xmlns="http://www.w3.org/2000/svg">
<rect x="0.0361328" y="0.872559" width="38" height="38" rx="19" transform="rotate(0.064638 0.0361328 0.872559)" fill="#1E1F1E"/>
<path d="M17.0113 22.8916L22.2047 19.8974L17.0181 16.8916L17.0113 22.8916ZM28.5801 15.0746C28.7096 15.5448 28.7989 16.1749 28.858 16.9749C28.9271 17.775 28.9563 18.4651 28.9556 19.0651L29.0147 19.9051C29.0122 22.0951 28.8504 23.7049 28.5692 24.7346C28.3182 25.6343 27.7376 26.2137 26.8373 26.4627C26.3671 26.5921 25.507 26.6812 24.187 26.7397C22.8869 26.8082 21.6968 26.8369 20.5968 26.8356L19.0068 26.8938C14.8168 26.8891 12.207 26.7262 11.1773 26.445C10.2776 26.194 9.69822 25.6133 9.44924 24.7131C9.31977 24.2429 9.23048 23.6128 9.17138 22.8127C9.10228 22.0127 9.07306 21.3226 9.07374 20.7226L9.01469 19.8826C9.01716 17.6926 9.17897 16.0827 9.46013 15.0531C9.71115 14.1533 10.2918 13.574 11.1921 13.325C11.6622 13.1955 12.5223 13.1065 13.8424 13.048C15.1425 12.9795 16.3325 12.9508 17.4325 12.9521L19.0226 12.8938C23.2126 12.8986 25.8224 13.0615 26.8521 13.3427C27.7518 13.5937 28.3311 14.1744 28.5801 15.0746Z" fill="#F8F8F8"/>
</svg>
