<svg width="145" height="72" viewBox="0 0 145 72" fill="none" xmlns="http://www.w3.org/2000/svg">
<line x1="2" y1="1.20658" x2="133.178" y2="1.20658" stroke="white" stroke-width="1.58683"/>
<line x1="133.972" y1="2" x2="133.972" y2="59.126" stroke="white" stroke-width="1.58683"/>
<line x1="133.178" y1="59.9194" x2="2.00006" y2="59.9194" stroke="white" stroke-width="1.58683"/>
<line x1="1.20658" y1="59.126" x2="1.20658" y2="2" stroke="white" stroke-width="1.58683"/>
<line x1="11.521" y1="11.7857" x2="142.699" y2="11.7857" stroke="white" stroke-width="1.58683"/>
<line x1="143.493" y1="12.5791" x2="143.493" y2="69.7051" stroke="white" stroke-width="1.58683"/>
<line x1="142.699" y1="70.4985" x2="11.5211" y2="70.4985" stroke="white" stroke-width="1.58683"/>
<line x1="10.7276" y1="69.7051" x2="10.7276" y2="12.5791" stroke="white" stroke-width="1.58683"/>
<path d="M32.0508 21.8824H49.654L49.9926 28.5852H49.3832C48.4353 26.3058 47.4423 24.7486 46.4042 23.9135C45.3661 23.056 43.8427 22.6272 41.8341 22.6272H40.6493V33.0876H41.8003C42.861 33.0876 43.7524 32.6926 44.4746 31.9027C45.1968 31.0903 45.7046 30.007 45.998 28.6529H46.5058V38.6732H45.9303C45.524 36.9806 44.9711 35.7732 44.2715 35.051C43.5945 34.3288 42.6579 33.9677 41.4617 33.9677H40.6493V44.8343H41.9357C44.012 44.8343 45.7723 44.2137 47.2167 42.9725C48.6836 41.7312 49.6879 40.1401 50.2295 38.1993H50.9066L50.6358 45.5791H32.0508V44.8343H34.0481V22.6272H32.0508V21.8824ZM59.6751 38.5716C59.6751 40.9413 59.7993 42.5211 60.0475 43.311C60.2958 44.0783 60.7471 44.462 61.4016 44.462C62.0787 44.462 62.6542 44.1686 63.1281 43.5818C63.6246 42.995 63.8728 42.1262 63.8728 40.9752V33.5953C63.8728 32.6249 63.681 31.8012 63.2974 31.1241C62.9137 30.4471 62.3495 30.1085 61.6047 30.1085C60.86 30.1085 60.3522 30.605 60.0814 31.598C59.8106 32.5911 59.6751 34.3288 59.6751 36.8113V38.5716ZM64.3129 45.5791L63.9406 43.2094C63.1732 45.0149 61.616 45.9176 59.2689 45.9176C57.328 45.9176 55.816 45.218 54.7327 43.8188C53.672 42.4195 53.1416 40.332 53.1416 37.5561C53.1416 31.9366 55.3759 29.1268 59.8444 29.1268C61.8304 29.1268 63.1394 29.6797 63.7713 30.7856V20.7991H61.7063V20.1898H70.1694V44.9698H71.8282V45.5791H64.3129ZM86.2795 27.705L87.2273 27.1295C87.3627 26.4299 87.0919 26.0801 86.4149 26.0801C85.4444 26.0801 84.9592 26.8249 84.9592 28.3144C84.9592 28.9011 85.0382 29.5782 85.1962 30.3455C86.9114 31.4965 87.769 32.9747 87.769 34.7802C87.769 36.5631 87.1483 37.951 85.9071 38.944C84.6658 39.937 82.9845 40.4335 80.8631 40.4335C79.9829 40.4335 79.0689 40.3433 78.121 40.1627C77.128 40.7946 76.6315 41.2686 76.6315 41.5845C76.6315 41.9005 77.3537 42.0584 78.7981 42.0584H82.251C87.374 42.0584 89.9355 43.8978 89.9355 47.5764C89.9355 49.5624 89.1569 51.1309 87.5997 52.2819C86.0651 53.4554 83.6615 54.0422 80.3891 54.0422C74.8148 54.0422 72.0276 52.8348 72.0276 50.42C72.0276 49.111 72.8965 48.2083 74.6342 47.7118L76.6654 48.6258C76.4848 49.2803 76.3945 49.9009 76.3945 50.4877C76.3945 52.4286 77.8389 53.399 80.7277 53.399C82.488 53.399 83.8421 53.0718 84.7899 52.4173C85.7378 51.7628 86.2117 50.9504 86.2117 49.9799C86.2117 49.0095 85.9184 48.355 85.3316 48.0165C84.7674 47.7005 83.6277 47.5425 81.9125 47.5425H78.6288C76.8008 47.5425 75.4918 47.2379 74.7019 46.6285C73.912 46.0192 73.5171 45.2744 73.5171 44.3943C73.5171 43.4915 73.7992 42.7468 74.3634 42.16C74.9276 41.5507 75.9319 40.8059 77.3763 39.9257C74.7583 39.181 73.4494 37.4658 73.4494 34.7802C73.4494 33.0876 74.0587 31.7222 75.2774 30.684C76.4961 29.6459 78.3241 29.1268 80.7615 29.1268C82.2284 29.1268 83.481 29.4089 84.5191 29.9731C84.3837 29.3638 84.316 28.8109 84.316 28.3144C84.316 27.0505 84.6545 26.1365 85.3316 25.5723C86.0086 25.0081 86.7647 24.726 87.5997 24.726C88.4347 24.726 89.1005 24.9517 89.597 25.4031C90.1161 25.8319 90.3756 26.4299 90.3756 27.1972C90.3756 27.9646 90.1725 28.54 89.7663 28.9237C89.36 29.2848 88.8635 29.4653 88.2767 29.4653C87.7125 29.4653 87.2386 29.3187 86.8549 29.0253C86.4939 28.7093 86.302 28.2692 86.2795 27.705ZM79.1027 34.0354V35.8635C79.1027 37.3755 79.2269 38.4024 79.4751 38.944C79.7459 39.4857 80.1409 39.7565 80.6599 39.7565C81.2016 39.7565 81.5852 39.4969 81.8109 38.9779C82.0592 38.4362 82.1833 37.3417 82.1833 35.6942V34.0354C82.1833 32.2751 82.0705 31.1241 81.8448 30.5825C81.6191 30.0183 81.2354 29.7362 80.6938 29.7362C80.1747 29.7362 79.7798 30.0296 79.509 30.6163C79.2381 31.1805 79.1027 32.3202 79.1027 34.0354ZM98.2696 45.9176C95.3583 45.9176 93.1691 45.1729 91.7022 43.6834C90.2578 42.1713 89.5356 40.0837 89.5356 37.4207C89.5356 34.735 90.3481 32.6813 91.973 31.2595C93.6205 29.8377 95.7081 29.1268 98.2357 29.1268C103.359 29.1268 105.819 31.6996 105.616 36.8452H96.0692V38.1654C96.0692 40.3771 96.3513 42.0472 96.9155 43.1756C97.4797 44.304 98.4614 44.8682 99.8606 44.8682C102.479 44.8682 104.194 43.469 105.006 40.6705L105.616 40.7721C105.187 42.397 104.408 43.6608 103.28 44.5635C102.174 45.4663 100.504 45.9176 98.2696 45.9176ZM96.103 36.1681H99.5898V34.5094C99.5898 32.6813 99.477 31.4401 99.2513 30.7856C99.0482 30.1085 98.6194 29.77 97.9649 29.77C97.333 29.77 96.859 30.1311 96.5431 30.8533C96.2497 31.5529 96.103 32.7716 96.103 34.5094V36.1681Z" fill="white"/>
</svg>
