<svg width="39" height="39" viewBox="0 0 39 39" fill="none" xmlns="http://www.w3.org/2000/svg">
<rect x="0.0360107" y="-0.00561523" width="38" height="38" rx="19" transform="rotate(0.064638 0.0360107 -0.00561523)" fill="#1E1F1E"/>
<path d="M16.2018 28.5125L20.2018 28.517L20.2109 20.507L23.8149 20.511L24.2154 16.5315L20.2154 16.527L20.2176 14.517C20.2179 14.2518 20.3236 13.9975 20.5113 13.8102C20.6991 13.6229 20.9535 13.5178 21.2188 13.5181L24.2188 13.5215L24.2233 9.52149L21.2233 9.51811C19.8972 9.51661 18.6248 10.042 17.6861 10.9786C16.7473 11.9152 16.2191 13.1864 16.2176 14.5125L16.2154 16.5225L14.2154 16.5202L13.8149 20.4998L16.2109 20.5025L16.2018 28.5125Z" fill="#F8F8F8"/>
</svg>
