<svg width="35" height="25" viewBox="0 0 35 30" fill="none" xmlns="http://www.w3.org/2000/svg">
<path d="M23.3333 26.25V23.75C23.3333 22.4239 22.7187 21.1521 21.6247 20.2145C20.5308 19.2768 19.0471 18.75 17.5 18.75H8.74996C7.20286 18.75 5.71913 19.2768 4.62517 20.2145C3.53121 21.1521 2.91663 22.4239 2.91663 23.75V26.25" stroke="#F2EBEB" stroke-width="3" stroke-linecap="round" stroke-linejoin="round"/>
<path d="M13.125 13.75C16.3466 13.75 18.9583 11.5114 18.9583 8.75C18.9583 5.98858 16.3466 3.75 13.125 3.75C9.9033 3.75 7.29163 5.98858 7.29163 8.75C7.29163 11.5114 9.9033 13.75 13.125 13.75Z" stroke="#F2EBEB" stroke-width="3" stroke-linecap="round" stroke-linejoin="round"/>
<path d="M32.0834 26.2501V23.7501C32.0824 22.6423 31.6522 21.5661 30.8604 20.6905C30.0685 19.8149 28.9598 19.1896 27.7084 18.9126" stroke="#F2EBEB" stroke-width="3" stroke-linecap="round" stroke-linejoin="round"/>
<path d="M23.3334 3.9126C24.5881 4.18797 25.7003 4.81347 26.4945 5.69049C27.2887 6.5675 27.7198 7.64613 27.7198 8.75635C27.7198 9.86656 27.2887 10.9452 26.4945 11.8222C25.7003 12.6992 24.5881 13.3247 23.3334 13.6001" stroke="#F2EBEB" stroke-width="3" stroke-linecap="round" stroke-linejoin="round"/>
</svg>
