<svg width="965" height="228" viewBox="0 0 965 228" fill="none" xmlns="http://www.w3.org/2000/svg">
<rect width="965" height="228" fill="white"/>
<path d="M289.373 165.58V146.682H296.673C298.619 146.682 300.281 147.022 301.659 147.701C303.036 148.362 304.092 149.391 304.827 150.787C305.58 152.164 305.956 153.945 305.956 156.131C305.956 158.298 305.58 160.079 304.827 161.475C304.092 162.871 303.036 163.908 301.659 164.588C300.281 165.249 298.619 165.58 296.673 165.58H289.373ZM292.458 162.935H296.645C297.619 162.935 298.482 162.806 299.235 162.549C300.006 162.292 300.649 161.897 301.163 161.365C301.696 160.832 302.09 160.162 302.348 159.354C302.623 158.527 302.761 157.554 302.761 156.434V155.855C302.761 154.717 302.623 153.743 302.348 152.935C302.09 152.109 301.696 151.429 301.163 150.897C300.649 150.364 300.006 149.969 299.235 149.712C298.482 149.455 297.619 149.327 296.645 149.327H292.458V162.935ZM309.136 148.583V145.663H312.001V148.583H309.136ZM309.136 165.58V151.09H312.001V165.58H309.136ZM321.045 165.91C320.035 165.91 319.144 165.8 318.373 165.58C317.601 165.359 316.958 165.056 316.444 164.671C315.93 164.285 315.535 163.826 315.26 163.293C315.003 162.742 314.874 162.136 314.874 161.475C314.874 161.383 314.874 161.301 314.874 161.227C314.892 161.154 314.902 161.089 314.902 161.034H317.739C317.739 161.089 317.739 161.144 317.739 161.2C317.739 161.236 317.739 161.282 317.739 161.337C317.739 161.907 317.895 162.366 318.207 162.715C318.519 163.045 318.933 163.284 319.447 163.431C319.979 163.559 320.558 163.624 321.182 163.624C321.733 163.624 322.238 163.559 322.697 163.431C323.175 163.284 323.561 163.073 323.854 162.797C324.167 162.522 324.323 162.173 324.323 161.751C324.323 161.2 324.13 160.777 323.744 160.483C323.359 160.189 322.854 159.96 322.229 159.795C321.605 159.611 320.953 159.418 320.273 159.216C319.667 159.051 319.061 158.876 318.455 158.693C317.868 158.491 317.335 158.234 316.857 157.921C316.38 157.609 315.994 157.214 315.7 156.737C315.407 156.259 315.26 155.663 315.26 154.946C315.26 154.267 315.407 153.67 315.7 153.156C315.994 152.641 316.398 152.21 316.913 151.861C317.445 151.512 318.07 151.246 318.786 151.062C319.52 150.878 320.319 150.787 321.182 150.787C322.082 150.787 322.881 150.888 323.579 151.09C324.277 151.273 324.865 151.54 325.342 151.889C325.838 152.237 326.214 152.66 326.471 153.156C326.729 153.633 326.857 154.147 326.857 154.698C326.857 154.809 326.848 154.928 326.83 155.056C326.83 155.167 326.83 155.24 326.83 155.277H324.02V155.029C324.02 154.662 323.919 154.331 323.717 154.037C323.515 153.743 323.193 153.505 322.753 153.321C322.33 153.137 321.761 153.046 321.045 153.046C320.567 153.046 320.145 153.091 319.777 153.183C319.41 153.257 319.107 153.367 318.868 153.514C318.63 153.661 318.446 153.835 318.317 154.037C318.207 154.239 318.152 154.469 318.152 154.726C318.152 155.148 318.299 155.479 318.593 155.718C318.905 155.938 319.309 156.131 319.805 156.296C320.301 156.443 320.833 156.608 321.403 156.792C322.064 156.976 322.734 157.168 323.414 157.37C324.093 157.554 324.718 157.793 325.287 158.087C325.875 158.381 326.343 158.785 326.692 159.299C327.059 159.813 327.243 160.502 327.243 161.365C327.243 162.155 327.087 162.843 326.775 163.431C326.462 164.019 326.022 164.496 325.452 164.863C324.901 165.212 324.249 165.469 323.496 165.635C322.743 165.818 321.926 165.91 321.045 165.91ZM335.904 165.91C334.453 165.91 333.241 165.644 332.268 165.111C331.295 164.56 330.56 163.725 330.064 162.604C329.587 161.484 329.348 160.061 329.348 158.335C329.348 156.608 329.596 155.194 330.092 154.092C330.587 152.972 331.322 152.136 332.295 151.586C333.287 151.035 334.499 150.759 335.932 150.759C336.923 150.759 337.787 150.888 338.521 151.145C339.256 151.383 339.88 151.751 340.394 152.247C340.909 152.724 341.285 153.321 341.524 154.037C341.781 154.753 341.909 155.571 341.909 156.489H339.017C339.017 155.718 338.907 155.084 338.686 154.588C338.466 154.092 338.126 153.725 337.667 153.486C337.208 153.229 336.611 153.101 335.877 153.101C335.105 153.101 334.453 153.284 333.921 153.652C333.388 154.001 332.984 154.542 332.709 155.277C332.433 155.993 332.295 156.939 332.295 158.114V158.583C332.295 159.703 332.424 160.639 332.681 161.392C332.957 162.127 333.361 162.678 333.893 163.045C334.444 163.394 335.142 163.569 335.987 163.569C336.721 163.569 337.309 163.44 337.75 163.183C338.209 162.907 338.549 162.522 338.769 162.026C339.008 161.512 339.127 160.897 339.127 160.18H341.909C341.909 161.043 341.781 161.824 341.524 162.522C341.285 163.22 340.909 163.826 340.394 164.34C339.898 164.836 339.274 165.221 338.521 165.497C337.768 165.772 336.896 165.91 335.904 165.91ZM350.979 165.91C349.473 165.91 348.196 165.644 347.15 165.111C346.121 164.56 345.341 163.725 344.808 162.604C344.294 161.484 344.037 160.061 344.037 158.335C344.037 156.59 344.294 155.167 344.808 154.065C345.341 152.945 346.121 152.118 347.15 151.586C348.196 151.035 349.473 150.759 350.979 150.759C352.521 150.759 353.807 151.035 354.835 151.586C355.864 152.118 356.635 152.945 357.149 154.065C357.682 155.167 357.948 156.59 357.948 158.335C357.948 160.061 357.682 161.484 357.149 162.604C356.635 163.725 355.864 164.56 354.835 165.111C353.807 165.644 352.521 165.91 350.979 165.91ZM350.979 163.541C351.897 163.541 352.65 163.367 353.238 163.018C353.825 162.65 354.257 162.099 354.532 161.365C354.826 160.63 354.973 159.703 354.973 158.583V158.087C354.973 156.966 354.826 156.039 354.532 155.304C354.257 154.57 353.825 154.028 353.238 153.679C352.65 153.312 351.897 153.128 350.979 153.128C350.079 153.128 349.335 153.312 348.747 153.679C348.16 154.028 347.719 154.57 347.425 155.304C347.15 156.039 347.012 156.966 347.012 158.087V158.583C347.012 159.703 347.15 160.63 347.425 161.365C347.719 162.099 348.16 162.65 348.747 163.018C349.335 163.367 350.079 163.541 350.979 163.541ZM364.589 165.58L359.217 151.09H362.22L364.726 158.004C364.837 158.335 364.974 158.766 365.14 159.299C365.305 159.813 365.47 160.346 365.635 160.897C365.801 161.447 365.948 161.943 366.076 162.384H366.214C366.324 161.962 366.453 161.484 366.6 160.952C366.765 160.401 366.93 159.859 367.096 159.326C367.261 158.794 367.408 158.353 367.536 158.004L370.016 151.09H372.936L367.536 165.58H364.589ZM380.97 165.91C379.483 165.91 378.234 165.644 377.224 165.111C376.232 164.56 375.479 163.725 374.965 162.604C374.451 161.484 374.194 160.061 374.194 158.335C374.194 156.59 374.451 155.167 374.965 154.065C375.479 152.945 376.241 152.118 377.251 151.586C378.262 151.035 379.52 150.759 381.025 150.759C382.403 150.759 383.551 151.025 384.469 151.558C385.405 152.072 386.113 152.862 386.59 153.927C387.068 154.992 387.306 156.333 387.306 157.949V159.051H377.141C377.178 160.079 377.334 160.942 377.61 161.64C377.885 162.32 378.298 162.825 378.849 163.155C379.419 163.468 380.135 163.624 380.998 163.624C381.53 163.624 382.008 163.559 382.43 163.431C382.853 163.284 383.211 163.082 383.505 162.825C383.799 162.549 384.028 162.228 384.193 161.861C384.359 161.475 384.441 161.043 384.441 160.566H387.251C387.251 161.429 387.104 162.191 386.81 162.852C386.517 163.514 386.085 164.074 385.516 164.533C384.965 164.974 384.304 165.313 383.532 165.552C382.761 165.791 381.907 165.91 380.97 165.91ZM377.196 156.957H384.304C384.304 156.241 384.221 155.644 384.056 155.167C383.909 154.671 383.688 154.267 383.395 153.955C383.101 153.642 382.752 153.422 382.348 153.293C381.944 153.147 381.485 153.073 380.97 153.073C380.199 153.073 379.538 153.211 378.987 153.486C378.454 153.762 378.041 154.193 377.747 154.781C377.453 155.35 377.27 156.076 377.196 156.957ZM390.218 165.58V151.09H392.587L392.835 153.431H393.001C393.166 152.972 393.377 152.54 393.634 152.136C393.91 151.732 394.259 151.402 394.681 151.145C395.122 150.888 395.654 150.759 396.279 150.759C396.573 150.759 396.83 150.787 397.05 150.842C397.289 150.897 397.472 150.943 397.601 150.979V153.679H396.637C396.049 153.679 395.526 153.771 395.067 153.955C394.626 154.138 394.249 154.414 393.937 154.781C393.643 155.13 393.423 155.562 393.276 156.076C393.148 156.59 393.083 157.168 393.083 157.811V165.58H390.218ZM404.853 165.58V151.09H407.222L407.47 153.156H407.663C408.012 152.623 408.425 152.182 408.902 151.833C409.38 151.485 409.903 151.218 410.473 151.035C411.06 150.851 411.703 150.759 412.401 150.759C413.319 150.759 414.127 150.924 414.825 151.255C415.523 151.567 416.065 152.081 416.45 152.798C416.854 153.514 417.056 154.478 417.056 155.69V165.58H414.191V156.131C414.191 155.58 414.118 155.121 413.971 154.753C413.843 154.386 413.65 154.092 413.393 153.872C413.135 153.652 412.832 153.495 412.484 153.404C412.135 153.312 411.749 153.266 411.327 153.266C410.665 153.266 410.059 153.431 409.508 153.762C408.976 154.074 408.544 154.515 408.214 155.084C407.883 155.653 407.718 156.324 407.718 157.095V165.58H404.853ZM426.65 165.91C425.162 165.91 423.913 165.644 422.903 165.111C421.911 164.56 421.158 163.725 420.644 162.604C420.13 161.484 419.873 160.061 419.873 158.335C419.873 156.59 420.13 155.167 420.644 154.065C421.158 152.945 421.921 152.118 422.931 151.586C423.941 151.035 425.199 150.759 426.705 150.759C428.082 150.759 429.23 151.025 430.148 151.558C431.085 152.072 431.792 152.862 432.269 153.927C432.747 154.992 432.985 156.333 432.985 157.949V159.051H422.82C422.857 160.079 423.013 160.942 423.289 161.64C423.564 162.32 423.977 162.825 424.528 163.155C425.098 163.468 425.814 163.624 426.677 163.624C427.21 163.624 427.687 163.559 428.11 163.431C428.532 163.284 428.89 163.082 429.184 162.825C429.478 162.549 429.707 162.228 429.873 161.861C430.038 161.475 430.121 161.043 430.121 160.566H432.93C432.93 161.429 432.783 162.191 432.49 162.852C432.196 163.514 431.764 164.074 431.195 164.533C430.644 164.974 429.983 165.313 429.211 165.552C428.44 165.791 427.586 165.91 426.65 165.91ZM422.876 156.957H429.983C429.983 156.241 429.9 155.644 429.735 155.167C429.588 154.671 429.368 154.267 429.074 153.955C428.78 153.642 428.431 153.422 428.027 153.293C427.623 153.147 427.164 153.073 426.65 153.073C425.878 153.073 425.217 153.211 424.666 153.486C424.134 153.762 423.72 154.193 423.426 154.781C423.133 155.35 422.949 156.076 422.876 156.957ZM438.597 165.58L434.245 151.09H437.22L439.341 159.023C439.451 159.409 439.543 159.813 439.616 160.235C439.708 160.658 439.791 161.034 439.864 161.365C439.938 161.695 439.993 161.925 440.03 162.054H440.195C440.268 161.723 440.351 161.346 440.443 160.924C440.535 160.502 440.617 160.116 440.691 159.767C440.764 159.4 440.819 159.124 440.856 158.941L442.784 151.09H445.87L447.853 158.968C447.927 159.262 448 159.602 448.073 159.987C448.165 160.355 448.248 160.722 448.321 161.089C448.413 161.457 448.477 161.778 448.514 162.054H448.679C448.735 161.796 448.799 161.493 448.872 161.144C448.964 160.777 449.056 160.41 449.148 160.043C449.24 159.675 449.322 159.336 449.396 159.023L451.489 151.09H454.217L449.892 165.58H446.916L445.153 158.362C445.08 158.013 444.988 157.609 444.878 157.15C444.768 156.691 444.667 156.232 444.575 155.773C444.483 155.314 444.41 154.91 444.355 154.561H444.189C444.153 154.763 444.097 155.056 444.024 155.442C443.969 155.828 443.886 156.269 443.776 156.764C443.666 157.26 443.537 157.793 443.39 158.362L441.572 165.58H438.597ZM461.938 165.58V145.663H464.803V165.58H461.938ZM474.508 165.91C473.02 165.91 471.771 165.644 470.761 165.111C469.77 164.56 469.017 163.725 468.502 162.604C467.988 161.484 467.731 160.061 467.731 158.335C467.731 156.59 467.988 155.167 468.502 154.065C469.017 152.945 469.779 152.118 470.789 151.586C471.799 151.035 473.057 150.759 474.563 150.759C475.94 150.759 477.088 151.025 478.006 151.558C478.943 152.072 479.65 152.862 480.127 153.927C480.605 154.992 480.844 156.333 480.844 157.949V159.051H470.679C470.715 160.079 470.871 160.942 471.147 161.64C471.422 162.32 471.836 162.825 472.387 163.155C472.956 163.468 473.672 163.624 474.535 163.624C475.068 163.624 475.545 163.559 475.968 163.431C476.39 163.284 476.748 163.082 477.042 162.825C477.336 162.549 477.566 162.228 477.731 161.861C477.896 161.475 477.979 161.043 477.979 160.566H480.789C480.789 161.429 480.642 162.191 480.348 162.852C480.054 163.514 479.622 164.074 479.053 164.533C478.502 164.974 477.841 165.313 477.07 165.552C476.298 165.791 475.444 165.91 474.508 165.91ZM470.734 156.957H477.841C477.841 156.241 477.758 155.644 477.593 155.167C477.446 154.671 477.226 154.267 476.932 153.955C476.638 153.642 476.289 153.422 475.885 153.293C475.481 153.147 475.022 153.073 474.508 153.073C473.736 153.073 473.075 153.211 472.524 153.486C471.992 153.762 471.579 154.193 471.285 154.781C470.991 155.35 470.807 156.076 470.734 156.957ZM487.53 165.58L482.158 151.09H485.161L487.667 158.004C487.778 158.335 487.915 158.766 488.081 159.299C488.246 159.813 488.411 160.346 488.577 160.897C488.742 161.447 488.889 161.943 489.017 162.384H489.155C489.265 161.962 489.394 161.484 489.541 160.952C489.706 160.401 489.871 159.859 490.037 159.326C490.202 158.794 490.349 158.353 490.477 158.004L492.957 151.09H495.877L490.477 165.58H487.53ZM503.911 165.91C502.424 165.91 501.175 165.644 500.165 165.111C499.173 164.56 498.42 163.725 497.906 162.604C497.392 161.484 497.135 160.061 497.135 158.335C497.135 156.59 497.392 155.167 497.906 154.065C498.42 152.945 499.182 152.118 500.192 151.586C501.203 151.035 502.461 150.759 503.966 150.759C505.344 150.759 506.492 151.025 507.41 151.558C508.347 152.072 509.054 152.862 509.531 153.927C510.009 154.992 510.247 156.333 510.247 157.949V159.051H500.082C500.119 160.079 500.275 160.942 500.551 161.64C500.826 162.32 501.239 162.825 501.79 163.155C502.36 163.468 503.076 163.624 503.939 163.624C504.472 163.624 504.949 163.559 505.371 163.431C505.794 163.284 506.152 163.082 506.446 162.825C506.74 162.549 506.969 162.228 507.134 161.861C507.3 161.475 507.382 161.043 507.382 160.566H510.192C510.192 161.429 510.045 162.191 509.751 162.852C509.458 163.514 509.026 164.074 508.457 164.533C507.906 164.974 507.245 165.313 506.473 165.552C505.702 165.791 504.848 165.91 503.911 165.91ZM500.137 156.957H507.245C507.245 156.241 507.162 155.644 506.997 155.167C506.85 154.671 506.629 154.267 506.336 153.955C506.042 153.642 505.693 153.422 505.289 153.293C504.885 153.147 504.426 153.073 503.911 153.073C503.14 153.073 502.479 153.211 501.928 153.486C501.395 153.762 500.982 154.193 500.688 154.781C500.394 155.35 500.211 156.076 500.137 156.957ZM513.159 165.58V145.663H516.024V165.58H513.159ZM531.543 165.91C530.037 165.91 528.761 165.644 527.714 165.111C526.686 164.56 525.905 163.725 525.373 162.604C524.858 161.484 524.601 160.061 524.601 158.335C524.601 156.59 524.858 155.167 525.373 154.065C525.905 152.945 526.686 152.118 527.714 151.586C528.761 151.035 530.037 150.759 531.543 150.759C533.086 150.759 534.372 151.035 535.4 151.586C536.428 152.118 537.2 152.945 537.714 154.065C538.247 155.167 538.513 156.59 538.513 158.335C538.513 160.061 538.247 161.484 537.714 162.604C537.2 163.725 536.428 164.56 535.4 165.111C534.372 165.644 533.086 165.91 531.543 165.91ZM531.543 163.541C532.462 163.541 533.215 163.367 533.802 163.018C534.39 162.65 534.821 162.099 535.097 161.365C535.391 160.63 535.538 159.703 535.538 158.583V158.087C535.538 156.966 535.391 156.039 535.097 155.304C534.821 154.57 534.39 154.028 533.802 153.679C533.215 153.312 532.462 153.128 531.543 153.128C530.643 153.128 529.9 153.312 529.312 153.679C528.724 154.028 528.284 154.57 527.99 155.304C527.714 156.039 527.577 156.966 527.577 158.087V158.583C527.577 159.703 527.714 160.63 527.99 161.365C528.284 162.099 528.724 162.65 529.312 163.018C529.9 163.367 530.643 163.541 531.543 163.541ZM542.067 165.58V153.459H539.946V151.09H542.067V148.996C542.067 148.39 542.158 147.821 542.342 147.288C542.544 146.756 542.884 146.315 543.361 145.966C543.857 145.617 544.555 145.442 545.455 145.442C545.712 145.442 545.969 145.461 546.226 145.498C546.502 145.516 546.759 145.553 546.998 145.608C547.236 145.663 547.448 145.727 547.631 145.801V147.812H546.226C545.786 147.812 545.455 147.922 545.235 148.142C545.033 148.362 544.932 148.684 544.932 149.106V151.09H547.631V153.459H544.932V165.58H542.067ZM560.91 165.91C559.46 165.91 558.247 165.644 557.274 165.111C556.301 164.56 555.566 163.725 555.07 162.604C554.593 161.484 554.354 160.061 554.354 158.335C554.354 156.608 554.602 155.194 555.098 154.092C555.594 152.972 556.328 152.136 557.302 151.586C558.293 151.035 559.505 150.759 560.938 150.759C561.93 150.759 562.793 150.888 563.527 151.145C564.262 151.383 564.886 151.751 565.401 152.247C565.915 152.724 566.291 153.321 566.53 154.037C566.787 154.753 566.916 155.571 566.916 156.489H564.023C564.023 155.718 563.913 155.084 563.693 154.588C563.472 154.092 563.133 153.725 562.673 153.486C562.214 153.229 561.617 153.101 560.883 153.101C560.112 153.101 559.46 153.284 558.927 153.652C558.394 154.001 557.99 154.542 557.715 155.277C557.439 155.993 557.302 156.939 557.302 158.114V158.583C557.302 159.703 557.43 160.639 557.687 161.392C557.963 162.127 558.367 162.678 558.899 163.045C559.45 163.394 560.148 163.569 560.993 163.569C561.728 163.569 562.315 163.44 562.756 163.183C563.215 162.907 563.555 162.522 563.775 162.026C564.014 161.512 564.133 160.897 564.133 160.18H566.916C566.916 161.043 566.787 161.824 566.53 162.522C566.291 163.22 565.915 163.826 565.401 164.34C564.905 164.836 564.28 165.221 563.527 165.497C562.774 165.772 561.902 165.91 560.91 165.91ZM575.985 165.91C574.479 165.91 573.203 165.644 572.156 165.111C571.128 164.56 570.347 163.725 569.814 162.604C569.3 161.484 569.043 160.061 569.043 158.335C569.043 156.59 569.3 155.167 569.814 154.065C570.347 152.945 571.128 152.118 572.156 151.586C573.203 151.035 574.479 150.759 575.985 150.759C577.528 150.759 578.813 151.035 579.842 151.586C580.87 152.118 581.641 152.945 582.156 154.065C582.688 155.167 582.955 156.59 582.955 158.335C582.955 160.061 582.688 161.484 582.156 162.604C581.641 163.725 580.87 164.56 579.842 165.111C578.813 165.644 577.528 165.91 575.985 165.91ZM575.985 163.541C576.903 163.541 577.656 163.367 578.244 163.018C578.832 162.65 579.263 162.099 579.539 161.365C579.832 160.63 579.979 159.703 579.979 158.583V158.087C579.979 156.966 579.832 156.039 579.539 155.304C579.263 154.57 578.832 154.028 578.244 153.679C577.656 153.312 576.903 153.128 575.985 153.128C575.085 153.128 574.341 153.312 573.754 153.679C573.166 154.028 572.725 154.57 572.431 155.304C572.156 156.039 572.018 156.966 572.018 158.087V158.583C572.018 159.703 572.156 160.63 572.431 161.365C572.725 162.099 573.166 162.65 573.754 163.018C574.341 163.367 575.085 163.541 575.985 163.541ZM585.875 165.58V151.09H588.244L588.492 153.156H588.685C589.015 152.623 589.392 152.182 589.814 151.833C590.255 151.485 590.741 151.218 591.274 151.035C591.825 150.851 592.413 150.759 593.037 150.759C593.937 150.759 594.718 150.943 595.379 151.31C596.058 151.677 596.572 152.293 596.921 153.156H597.114C597.445 152.641 597.83 152.21 598.271 151.861C598.712 151.494 599.208 151.218 599.759 151.035C600.328 150.851 600.934 150.759 601.577 150.759C602.44 150.759 603.202 150.915 603.863 151.227C604.524 151.521 605.048 152.026 605.433 152.743C605.819 153.44 606.012 154.377 606.012 155.552V165.58H603.147V156.076C603.147 155.525 603.083 155.075 602.954 154.726C602.826 154.359 602.651 154.074 602.431 153.872C602.21 153.652 601.944 153.495 601.632 153.404C601.32 153.312 600.98 153.266 600.613 153.266C600.007 153.266 599.465 153.431 598.987 153.762C598.51 154.074 598.124 154.515 597.83 155.084C597.537 155.653 597.39 156.324 597.39 157.095V165.58H594.525V156.076C594.525 155.525 594.46 155.075 594.332 154.726C594.203 154.359 594.029 154.074 593.808 153.872C593.588 153.652 593.322 153.495 593.01 153.404C592.697 153.312 592.367 153.266 592.018 153.266C591.412 153.266 590.861 153.431 590.365 153.762C589.869 154.074 589.474 154.515 589.18 155.084C588.887 155.653 588.74 156.324 588.74 157.095V165.58H585.875ZM610.209 165.58V153.459H608.088V151.09H610.209V148.996C610.209 148.39 610.301 147.821 610.484 147.288C610.686 146.756 611.026 146.315 611.504 145.966C611.999 145.617 612.697 145.442 613.597 145.442C613.854 145.442 614.111 145.461 614.368 145.498C614.644 145.516 614.901 145.553 615.14 145.608C615.379 145.663 615.59 145.727 615.773 145.801V147.812H614.368C613.928 147.812 613.597 147.922 613.377 148.142C613.175 148.362 613.074 148.684 613.074 149.106V151.09H615.773V153.459H613.074V165.58H610.209ZM623.682 165.91C622.176 165.91 620.9 165.644 619.853 165.111C618.824 164.56 618.044 163.725 617.511 162.604C616.997 161.484 616.74 160.061 616.74 158.335C616.74 156.59 616.997 155.167 617.511 154.065C618.044 152.945 618.824 152.118 619.853 151.586C620.9 151.035 622.176 150.759 623.682 150.759C625.224 150.759 626.51 151.035 627.538 151.586C628.567 152.118 629.338 152.945 629.852 154.065C630.385 155.167 630.651 156.59 630.651 158.335C630.651 160.061 630.385 161.484 629.852 162.604C629.338 163.725 628.567 164.56 627.538 165.111C626.51 165.644 625.224 165.91 623.682 165.91ZM623.682 163.541C624.6 163.541 625.353 163.367 625.941 163.018C626.528 162.65 626.96 162.099 627.235 161.365C627.529 160.63 627.676 159.703 627.676 158.583V158.087C627.676 156.966 627.529 156.039 627.235 155.304C626.96 154.57 626.528 154.028 625.941 153.679C625.353 153.312 624.6 153.128 623.682 153.128C622.782 153.128 622.038 153.312 621.45 153.679C620.863 154.028 620.422 154.57 620.128 155.304C619.853 156.039 619.715 156.966 619.715 158.087V158.583C619.715 159.703 619.853 160.63 620.128 161.365C620.422 162.099 620.863 162.65 621.45 163.018C622.038 163.367 622.782 163.541 623.682 163.541ZM633.572 165.58V151.09H635.941L636.189 153.431H636.354C636.519 152.972 636.73 152.54 636.987 152.136C637.263 151.732 637.612 151.402 638.034 151.145C638.475 150.888 639.008 150.759 639.632 150.759C639.926 150.759 640.183 150.787 640.403 150.842C640.642 150.897 640.826 150.943 640.954 150.979V153.679H639.99C639.402 153.679 638.879 153.771 638.42 153.955C637.979 154.138 637.603 154.414 637.29 154.781C636.997 155.13 636.776 155.562 636.629 156.076C636.501 156.59 636.436 157.168 636.436 157.811V165.58H633.572ZM646.704 165.91C645.877 165.91 645.225 165.754 644.748 165.442C644.289 165.111 643.958 164.698 643.756 164.202C643.572 163.688 643.48 163.146 643.48 162.577V153.459H641.662V151.09H643.536L644.059 147.04H646.345V151.09H648.962V153.459H646.345V162.246C646.345 162.669 646.437 162.99 646.621 163.211C646.805 163.431 647.108 163.541 647.53 163.541H648.962V165.469C648.779 165.543 648.549 165.607 648.274 165.662C648.017 165.736 647.75 165.791 647.475 165.828C647.199 165.883 646.942 165.91 646.704 165.91ZM652.067 165.58V162.384H655.124V165.58H652.067ZM660.524 165.58V162.384H663.581V165.58H660.524ZM668.953 165.58V162.384H672.038V165.58H668.953Z" fill="#9C9A9D"/>
<path d="M337.208 109.448C334.249 109.448 331.355 109.223 328.525 108.773C325.694 108.322 323.025 107.647 320.516 106.746C318.008 105.782 315.757 104.624 313.763 103.273C312.798 102.565 312.122 101.761 311.736 100.861C311.415 99.9603 311.318 99.0919 311.447 98.2557C311.64 97.3552 312.026 96.5833 312.605 95.9401C313.184 95.2969 313.891 94.9109 314.727 94.7823C315.564 94.5893 316.496 94.8466 317.525 95.5542C320.42 97.4195 323.475 98.8025 326.691 99.703C329.908 100.539 333.413 100.957 337.208 100.957C342.676 100.957 346.696 99.9925 349.269 98.0628C351.906 96.0688 353.225 93.4958 353.225 90.344C353.225 87.7711 352.292 85.7449 350.427 84.2655C348.561 82.7217 345.442 81.4996 341.068 80.5991L330.744 78.4764C324.633 77.1899 320.066 75.0673 317.043 72.1084C314.084 69.1496 312.605 65.1615 312.605 60.1443C312.605 57.1212 313.216 54.3553 314.438 51.8467C315.724 49.3381 317.493 47.1832 319.745 45.3822C321.996 43.5168 324.697 42.1017 327.849 41.1369C331.001 40.172 334.442 39.6896 338.173 39.6896C342.161 39.6896 345.892 40.2042 349.365 41.2334C352.903 42.2625 356.055 43.8384 358.821 45.9611C359.657 46.54 360.204 47.2797 360.461 48.1803C360.783 49.0165 360.847 49.8527 360.654 50.6889C360.525 51.5251 360.172 52.2326 359.593 52.8115C359.014 53.3904 358.274 53.7442 357.374 53.8728C356.473 53.9372 355.476 53.6155 354.383 52.908C351.874 51.2356 349.301 50.0456 346.664 49.3381C344.091 48.5662 341.228 48.1803 338.077 48.1803C334.925 48.1803 332.159 48.6627 329.779 49.6275C327.463 50.5924 325.662 51.9432 324.376 53.6799C323.154 55.4166 322.543 57.4749 322.543 59.8549C322.543 62.5565 323.411 64.7113 325.148 66.3194C326.884 67.9274 329.779 69.1496 333.831 69.9858L344.059 72.1084C350.491 73.4592 355.283 75.5497 358.435 78.3799C361.587 81.2101 363.163 84.973 363.163 89.6686C363.163 92.6918 362.552 95.4255 361.329 97.8698C360.107 100.25 358.371 102.308 356.119 104.045C353.868 105.782 351.134 107.132 347.918 108.097C344.766 108.998 341.196 109.448 337.208 109.448ZM379.572 109.255C377.964 109.255 376.709 108.805 375.809 107.904C374.973 107.004 374.555 105.749 374.555 104.141V44.9963C374.555 43.3239 374.973 42.0696 375.809 41.2334C376.709 40.3328 377.964 39.8826 379.572 39.8826C381.18 39.8826 382.402 40.3328 383.238 41.2334C384.139 42.0696 384.589 43.3239 384.589 44.9963V69.8893H422.7V44.9963C422.7 43.3239 423.119 42.0696 423.955 41.2334C424.855 40.3328 426.11 39.8826 427.718 39.8826C429.326 39.8826 430.548 40.3328 431.384 41.2334C432.22 42.0696 432.638 43.3239 432.638 44.9963V104.141C432.638 105.749 432.22 107.004 431.384 107.904C430.548 108.805 429.326 109.255 427.718 109.255C426.11 109.255 424.855 108.805 423.955 107.904C423.119 107.004 422.7 105.749 422.7 104.141V78.2834H384.589V104.141C384.589 105.749 384.171 107.004 383.335 107.904C382.499 108.805 381.244 109.255 379.572 109.255ZM478.044 109.448C471.612 109.448 465.984 108.033 461.159 105.203C456.399 102.308 452.701 98.2557 450.064 93.0456C447.491 87.7711 446.204 81.5961 446.204 74.5205C446.204 69.1817 446.944 64.3897 448.423 60.1443C449.903 55.8347 452.025 52.1683 454.791 49.1451C457.557 46.0576 460.902 43.7098 464.826 42.1017C468.749 40.4937 473.156 39.6896 478.044 39.6896C484.541 39.6896 490.169 41.1047 494.929 43.9349C499.689 46.7651 503.355 50.7853 505.928 55.9955C508.565 61.2057 509.884 67.3485 509.884 74.4241C509.884 79.7629 509.144 84.5871 507.665 88.8967C506.185 93.2064 504.031 96.905 501.2 99.9925C498.434 103.08 495.09 105.428 491.166 107.036C487.242 108.644 482.868 109.448 478.044 109.448ZM478.044 100.764C482.547 100.764 486.374 99.7352 489.526 97.6768C492.742 95.6185 495.186 92.6275 496.859 88.7038C498.595 84.7801 499.464 80.0523 499.464 74.5205C499.464 66.2229 497.598 59.7906 493.868 55.2236C490.137 50.6567 484.862 48.3732 478.044 48.3732C473.541 48.3732 469.682 49.4024 466.466 51.4607C463.314 53.4547 460.87 56.4136 459.133 60.3373C457.461 64.261 456.625 68.9888 456.625 74.5205C456.625 82.7539 458.49 89.1862 462.221 93.8175C466.016 98.4487 471.29 100.764 478.044 100.764ZM528.736 108.58C526.999 108.58 525.649 108.129 524.684 107.229C523.783 106.264 523.333 104.913 523.333 103.176V45.9611C523.333 44.2244 523.783 42.9058 524.684 42.0052C525.649 41.0404 526.999 40.558 528.736 40.558H563.953C565.304 40.558 566.333 40.9118 567.041 41.6193C567.748 42.2625 568.102 43.2274 568.102 44.5138C568.102 45.8646 567.748 46.8938 567.041 47.6013C566.333 48.3089 565.304 48.6627 563.953 48.6627H532.982V69.9858H561.83C563.246 69.9858 564.275 70.3395 564.918 71.0471C565.625 71.7546 565.979 72.7517 565.979 74.0381C565.979 75.3889 565.625 76.4181 564.918 77.1256C564.275 77.7689 563.246 78.0905 561.83 78.0905H532.982V100.475H563.953C565.304 100.475 566.333 100.829 567.041 101.536C567.748 102.244 568.102 103.241 568.102 104.527C568.102 105.878 567.748 106.907 567.041 107.615C566.333 108.258 565.304 108.58 563.953 108.58H528.736ZM601.881 109.448C598.922 109.448 596.028 109.223 593.198 108.773C590.367 108.322 587.698 107.647 585.189 106.746C582.681 105.782 580.43 104.624 578.436 103.273C577.471 102.565 576.795 101.761 576.409 100.861C576.088 99.9603 575.991 99.0919 576.12 98.2557C576.313 97.3552 576.699 96.5833 577.278 95.9401C577.857 95.2969 578.564 94.9109 579.4 94.7823C580.237 94.5893 581.169 94.8466 582.198 95.5542C585.093 97.4195 588.148 98.8025 591.364 99.703C594.581 100.539 598.086 100.957 601.881 100.957C607.349 100.957 611.369 99.9925 613.942 98.0628C616.579 96.0688 617.898 93.4958 617.898 90.344C617.898 87.7711 616.965 85.7449 615.1 84.2655C613.234 82.7217 610.115 81.4996 605.741 80.5991L595.417 78.4764C589.306 77.1899 584.739 75.0673 581.716 72.1084C578.757 69.1496 577.278 65.1615 577.278 60.1443C577.278 57.1212 577.889 54.3553 579.111 51.8467C580.397 49.3381 582.166 47.1832 584.418 45.3822C586.669 43.5168 589.37 42.1017 592.522 41.1369C595.674 40.172 599.115 39.6896 602.846 39.6896C606.834 39.6896 610.565 40.2042 614.038 41.2334C617.576 42.2625 620.728 43.8384 623.494 45.9611C624.33 46.54 624.877 47.2797 625.134 48.1803C625.456 49.0165 625.52 49.8527 625.327 50.6889C625.198 51.5251 624.845 52.2326 624.266 52.8115C623.687 53.3904 622.947 53.7442 622.047 53.8728C621.146 53.9372 620.149 53.6155 619.056 52.908C616.547 51.2356 613.974 50.0456 611.337 49.3381C608.764 48.5662 605.901 48.1803 602.75 48.1803C599.598 48.1803 596.832 48.6627 594.452 49.6275C592.136 50.5924 590.335 51.9432 589.049 53.6799C587.827 55.4166 587.216 57.4749 587.216 59.8549C587.216 62.5565 588.084 64.7113 589.821 66.3194C591.557 67.9274 594.452 69.1496 598.504 69.9858L608.732 72.1084C615.164 73.4592 619.956 75.5497 623.108 78.3799C626.26 81.2101 627.836 84.973 627.836 89.6686C627.836 92.6918 627.225 95.4255 626.002 97.8698C624.78 100.25 623.044 102.308 620.792 104.045C618.541 105.782 615.807 107.132 612.591 108.097C609.439 108.998 605.869 109.448 601.881 109.448Z" fill="#2D2A2C"/>
<line x1="651.984" y1="71.5001" x2="841.984" y2="69.5001" stroke="black" stroke-width="3"/>
<line x1="101.984" y1="77.5001" x2="291.984" y2="75.5001" stroke="black" stroke-width="3"/>
</svg>
