<svg width="331" height="336" viewBox="0 0 331 336" fill="none" xmlns="http://www.w3.org/2000/svg">
<rect width="330.473" height="334.865" transform="translate(0.24585 0.664551)" fill="#16161A"/>
<path d="M29.6964 160.415V142.338H43.7937V145.263H33.1219V149.716H42.6343V152.641H33.1219V157.49H43.9518V160.415H29.6964ZM45.6613 160.415L50.6151 153.274L46.0038 146.554H49.9036L52.644 150.85H52.8021L55.5952 146.554H59.2579L54.6203 153.195L59.5214 160.415H55.6743L52.5913 155.619H52.4332L49.3239 160.415H45.6613ZM61.4949 164.973V146.554H64.1563L64.4198 148.399H64.6042C65.061 147.679 65.6582 147.143 66.396 146.792C67.1338 146.423 67.9507 146.238 68.8466 146.238C69.9884 146.238 70.9634 146.493 71.7714 147.002C72.5971 147.512 73.2295 148.302 73.6686 149.374C74.1254 150.445 74.3537 151.824 74.3537 153.511C74.3537 155.162 74.1254 156.524 73.6686 157.595C73.2119 158.667 72.5795 159.457 71.7714 159.967C70.9809 160.476 70.0675 160.731 69.031 160.731C68.3986 160.731 67.8189 160.66 67.2919 160.52C66.7649 160.379 66.2994 160.169 65.8954 159.888C65.4913 159.589 65.1488 159.229 64.8677 158.807H64.7096V164.973H61.4949ZM67.8453 157.964C68.6358 157.964 69.2594 157.815 69.7161 157.516C70.1904 157.2 70.5242 156.726 70.7174 156.093C70.9282 155.461 71.0336 154.661 71.0336 153.695V153.326C71.0336 152.343 70.9282 151.535 70.7174 150.902C70.5242 150.252 70.1904 149.778 69.7161 149.479C69.2594 149.163 68.6358 149.005 67.8453 149.005C67.125 149.005 66.5278 149.172 66.0535 149.506C65.5967 149.839 65.2542 150.331 65.0258 150.981C64.815 151.614 64.7096 152.395 64.7096 153.326V153.643C64.7096 154.328 64.7711 154.943 64.8941 155.487C65.017 156.014 65.2015 156.462 65.4474 156.831C65.7109 157.2 66.0359 157.481 66.4224 157.674C66.8264 157.867 67.3007 157.964 67.8453 157.964ZM77.0888 160.415V141.364H80.3035V160.415H77.0888ZM89.8936 160.731C88.3829 160.731 87.1181 160.476 86.0992 159.967C85.0804 159.44 84.3162 158.64 83.8068 157.569C83.2974 156.497 83.0426 155.136 83.0426 153.485C83.0426 151.816 83.2974 150.454 83.8068 149.4C84.3162 148.329 85.0804 147.538 86.0992 147.029C87.1181 146.502 88.3829 146.238 89.8936 146.238C91.4219 146.238 92.6867 146.502 93.688 147.029C94.7069 147.538 95.4711 148.329 95.9805 149.4C96.4899 150.454 96.7446 151.816 96.7446 153.485C96.7446 155.136 96.4899 156.497 95.9805 157.569C95.4711 158.64 94.7069 159.44 93.688 159.967C92.6867 160.476 91.4219 160.731 89.8936 160.731ZM89.8936 158.096C90.7368 158.096 91.4132 157.938 91.9226 157.621C92.4496 157.288 92.8273 156.796 93.0556 156.146C93.3016 155.478 93.4245 154.653 93.4245 153.669V153.3C93.4245 152.316 93.3016 151.499 93.0556 150.85C92.8273 150.182 92.4496 149.69 91.9226 149.374C91.4132 149.04 90.7368 148.873 89.8936 148.873C89.0504 148.873 88.3653 149.04 87.8383 149.374C87.3289 149.69 86.9512 150.182 86.7053 150.85C86.4769 151.499 86.3627 152.316 86.3627 153.3V153.669C86.3627 154.653 86.4769 155.478 86.7053 156.146C86.9512 156.796 87.3289 157.288 87.8383 157.621C88.3653 157.938 89.0504 158.096 89.8936 158.096ZM99.476 160.415V146.554H102.164L102.427 148.742H102.612C102.787 148.302 102.998 147.898 103.244 147.529C103.508 147.143 103.841 146.836 104.245 146.607C104.649 146.361 105.141 146.238 105.721 146.238C106.002 146.238 106.257 146.265 106.485 146.317C106.731 146.37 106.915 146.423 107.038 146.475V149.506H106.063C105.519 149.506 105.036 149.585 104.614 149.743C104.193 149.883 103.833 150.112 103.534 150.428C103.253 150.744 103.042 151.139 102.901 151.614C102.761 152.088 102.691 152.641 102.691 153.274V160.415H99.476ZM114.72 160.731C113.245 160.731 112.015 160.476 111.031 159.967C110.048 159.44 109.31 158.64 108.818 157.569C108.326 156.497 108.08 155.136 108.08 153.485C108.08 151.816 108.326 150.454 108.818 149.4C109.31 148.329 110.048 147.538 111.031 147.029C112.015 146.502 113.245 146.238 114.72 146.238C116.056 146.238 117.171 146.493 118.067 147.002C118.98 147.494 119.666 148.258 120.122 149.295C120.579 150.331 120.807 151.675 120.807 153.326V154.275H111.374C111.409 155.136 111.541 155.865 111.769 156.462C111.998 157.042 112.349 157.481 112.823 157.78C113.315 158.061 113.956 158.201 114.747 158.201C115.151 158.201 115.529 158.148 115.88 158.043C116.231 157.938 116.539 157.78 116.802 157.569C117.066 157.34 117.268 157.059 117.408 156.726C117.566 156.392 117.645 156.005 117.645 155.566H120.807C120.807 156.444 120.649 157.209 120.333 157.859C120.034 158.509 119.604 159.044 119.042 159.466C118.497 159.888 117.856 160.204 117.118 160.415C116.381 160.625 115.581 160.731 114.72 160.731ZM111.427 152.009H117.461C117.461 151.429 117.391 150.937 117.25 150.533C117.127 150.129 116.943 149.796 116.697 149.532C116.468 149.269 116.187 149.084 115.854 148.979C115.52 148.856 115.142 148.794 114.72 148.794C114.035 148.794 113.456 148.908 112.981 149.137C112.525 149.365 112.173 149.716 111.927 150.191C111.681 150.665 111.515 151.271 111.427 152.009ZM132.474 160.731C131.613 160.731 130.937 160.564 130.445 160.23C129.953 159.879 129.601 159.44 129.391 158.913C129.197 158.368 129.101 157.815 129.101 157.253V149.189H127.441V146.554H129.18L129.76 142.681H132.315V146.554H134.713V149.189H132.315V156.936C132.315 157.305 132.412 157.595 132.605 157.806C132.799 157.999 133.088 158.096 133.475 158.096H134.713V160.309C134.538 160.379 134.318 160.441 134.055 160.494C133.809 160.564 133.545 160.617 133.264 160.652C132.983 160.704 132.72 160.731 132.474 160.731ZM137.097 160.415V141.364H140.311V148.135H140.496C140.795 147.767 141.146 147.442 141.55 147.161C141.954 146.879 142.411 146.66 142.92 146.502C143.447 146.326 144.027 146.238 144.659 146.238C145.538 146.238 146.31 146.396 146.978 146.713C147.663 147.029 148.199 147.538 148.585 148.241C148.972 148.944 149.165 149.883 149.165 151.06V160.415H145.924V151.64C145.924 151.148 145.863 150.744 145.74 150.428C145.634 150.094 145.467 149.831 145.239 149.637C145.028 149.427 144.765 149.277 144.448 149.189C144.132 149.102 143.781 149.058 143.394 149.058C142.815 149.058 142.288 149.198 141.813 149.479C141.357 149.76 140.988 150.147 140.707 150.639C140.443 151.131 140.311 151.701 140.311 152.351V160.415H137.097ZM158.44 160.731C156.964 160.731 155.735 160.476 154.751 159.967C153.767 159.44 153.029 158.64 152.537 157.569C152.046 156.497 151.8 155.136 151.8 153.485C151.8 151.816 152.046 150.454 152.537 149.4C153.029 148.329 153.767 147.538 154.751 147.029C155.735 146.502 156.964 146.238 158.44 146.238C159.775 146.238 160.89 146.493 161.786 147.002C162.7 147.494 163.385 148.258 163.842 149.295C164.298 150.331 164.527 151.675 164.527 153.326V154.275H155.093C155.129 155.136 155.26 155.865 155.489 156.462C155.717 157.042 156.068 157.481 156.543 157.78C157.035 158.061 157.676 158.201 158.466 158.201C158.87 158.201 159.248 158.148 159.599 158.043C159.951 157.938 160.258 157.78 160.522 157.569C160.785 157.34 160.987 157.059 161.128 156.726C161.286 156.392 161.365 156.005 161.365 155.566H164.527C164.527 156.444 164.369 157.209 164.052 157.859C163.754 158.509 163.323 159.044 162.761 159.466C162.217 159.888 161.576 160.204 160.838 160.415C160.1 160.625 159.301 160.731 158.44 160.731ZM155.146 152.009H161.18C161.18 151.429 161.11 150.937 160.969 150.533C160.846 150.129 160.662 149.796 160.416 149.532C160.188 149.269 159.907 149.084 159.573 148.979C159.239 148.856 158.861 148.794 158.44 148.794C157.755 148.794 157.175 148.908 156.701 149.137C156.244 149.365 155.893 149.716 155.647 150.191C155.401 150.665 155.234 151.271 155.146 152.009ZM29.6964 198.415V180.338H33.1219V195.437H42.1863V198.415H29.6964ZM47.9916 198.731C47.6051 198.731 47.1572 198.678 46.6477 198.573C46.1559 198.485 45.6728 198.309 45.1985 198.046C44.7417 197.782 44.3641 197.396 44.0654 196.886C43.7668 196.359 43.6175 195.674 43.6175 194.831C43.6175 193.882 43.8283 193.101 44.2499 192.486C44.6715 191.853 45.26 191.362 46.0153 191.01C46.7883 190.641 47.7017 190.387 48.7557 190.246C49.8273 190.088 50.9955 190.009 52.2603 190.009V188.876C52.2603 188.472 52.1988 188.112 52.0758 187.796C51.9529 187.479 51.7245 187.233 51.3907 187.058C51.0745 186.864 50.5914 186.768 49.9415 186.768C49.2915 186.768 48.7821 186.847 48.4132 187.005C48.0443 187.163 47.7896 187.356 47.649 187.585C47.5085 187.813 47.4382 188.05 47.4382 188.296V188.665H44.3289C44.3114 188.577 44.3026 188.489 44.3026 188.402C44.3026 188.314 44.3026 188.208 44.3026 188.085C44.3026 187.295 44.5397 186.61 45.014 186.03C45.4883 185.45 46.1471 185.011 46.9903 184.713C47.8335 184.396 48.8084 184.238 49.9151 184.238C51.1799 184.238 52.2164 184.414 53.0244 184.765C53.8501 185.117 54.4649 185.617 54.8689 186.267C55.273 186.917 55.475 187.708 55.475 188.639V195.174C55.475 195.507 55.5716 195.744 55.7648 195.885C55.9581 196.025 56.1689 196.096 56.3972 196.096H57.2404V198.309C57.0648 198.379 56.81 198.458 56.4763 198.546C56.1425 198.652 55.7297 198.704 55.2378 198.704C54.7811 198.704 54.3683 198.625 53.9994 198.467C53.648 198.327 53.3494 198.116 53.1035 197.835C52.8575 197.554 52.6819 197.22 52.5765 196.834H52.4184C52.1197 197.202 51.7596 197.536 51.338 197.835C50.934 198.116 50.4509 198.336 49.8888 198.494C49.3442 198.652 48.7118 198.731 47.9916 198.731ZM48.9665 196.096C49.4935 196.096 49.959 196.017 50.3631 195.859C50.7847 195.701 51.1272 195.481 51.3907 195.2C51.6718 194.919 51.8826 194.576 52.0231 194.172C52.1812 193.768 52.2603 193.329 52.2603 192.855V192.222C51.2941 192.222 50.3982 192.284 49.5726 192.407C48.7645 192.53 48.1145 192.758 47.6227 193.092C47.1484 193.426 46.9112 193.9 46.9112 194.515C46.9112 194.831 46.9815 195.112 47.122 195.358C47.2801 195.586 47.5085 195.771 47.8071 195.911C48.1233 196.034 48.5098 196.096 48.9665 196.096ZM62.7387 198.731C61.878 198.731 61.2016 198.564 60.7098 198.23C60.2179 197.879 59.8666 197.44 59.6558 196.913C59.4625 196.368 59.3659 195.815 59.3659 195.253V187.189H57.7059V184.554H59.445L60.0247 180.681H62.5806V184.554H64.9785V187.189H62.5806V194.936C62.5806 195.305 62.6772 195.595 62.8705 195.806C63.0637 195.999 63.3536 196.096 63.74 196.096H64.9785V198.309C64.8028 198.379 64.5832 198.441 64.3197 198.494C64.0738 198.564 63.8103 198.617 63.5292 198.652C63.2482 198.704 62.9847 198.731 62.7387 198.731ZM73.317 198.731C71.8414 198.731 70.6118 198.476 69.628 197.967C68.6443 197.44 67.9065 196.64 67.4146 195.569C66.9228 194.497 66.6768 193.136 66.6768 191.485C66.6768 189.816 66.9228 188.454 67.4146 187.4C67.9065 186.329 68.6443 185.538 69.628 185.029C70.6118 184.502 71.8414 184.238 73.317 184.238C74.6521 184.238 75.7676 184.493 76.6635 185.002C77.5769 185.494 78.262 186.258 78.7188 187.295C79.1755 188.331 79.4039 189.675 79.4039 191.326V192.275H69.9706C70.0057 193.136 70.1375 193.865 70.3658 194.462C70.5942 195.042 70.9455 195.481 71.4198 195.78C71.9117 196.061 72.5529 196.201 73.3434 196.201C73.7474 196.201 74.1251 196.148 74.4764 196.043C74.8278 195.938 75.1352 195.78 75.3987 195.569C75.6622 195.34 75.8642 195.059 76.0047 194.726C76.1628 194.392 76.2419 194.005 76.2419 193.566H79.4039C79.4039 194.444 79.2458 195.209 78.9296 195.859C78.6309 196.509 78.2006 197.044 77.6384 197.466C77.0939 197.888 76.4527 198.204 75.7149 198.415C74.9771 198.625 74.1778 198.731 73.317 198.731ZM70.0233 190.009H76.0574C76.0574 189.429 75.9872 188.937 75.8466 188.533C75.7237 188.129 75.5392 187.796 75.2933 187.532C75.0649 187.269 74.7838 187.084 74.4501 186.979C74.1163 186.856 73.7386 186.794 73.317 186.794C72.6319 186.794 72.0522 186.908 71.5779 187.137C71.1212 187.365 70.7699 187.716 70.5239 188.191C70.278 188.665 70.1111 189.271 70.0233 190.009ZM87.5341 198.731C86.5328 198.731 85.6544 198.625 84.8991 198.415C84.1437 198.186 83.5113 197.879 83.0019 197.492C82.4924 197.106 82.106 196.658 81.8425 196.148C81.5965 195.621 81.4736 195.051 81.4736 194.436C81.4736 194.348 81.4736 194.269 81.4736 194.199C81.4911 194.128 81.4999 194.076 81.4999 194.04H84.6619C84.6619 194.076 84.6619 194.111 84.6619 194.146C84.6619 194.181 84.6619 194.216 84.6619 194.251C84.6795 194.726 84.8288 195.112 85.1099 195.411C85.3909 195.692 85.7598 195.894 86.2166 196.017C86.6733 196.14 87.1564 196.201 87.6658 196.201C88.1226 196.201 88.5529 196.157 88.957 196.069C89.3786 195.964 89.7211 195.806 89.9846 195.595C90.2657 195.367 90.4062 195.077 90.4062 194.726C90.4062 194.269 90.2306 193.917 89.8792 193.672C89.5279 193.426 89.0624 193.224 88.4827 193.066C87.9205 192.907 87.3145 192.741 86.6645 192.565C86.0848 192.407 85.5051 192.231 84.9254 192.038C84.3457 191.845 83.8187 191.599 83.3444 191.3C82.8877 191.001 82.51 190.615 82.2114 190.141C81.9303 189.666 81.7898 189.078 81.7898 188.375C81.7898 187.69 81.9391 187.093 82.2377 186.583C82.5364 186.074 82.9492 185.652 83.4762 185.319C84.0032 184.967 84.6268 184.704 85.347 184.528C86.0673 184.352 86.849 184.265 87.6922 184.265C88.5178 184.265 89.2644 184.352 89.9319 184.528C90.617 184.704 91.2055 184.958 91.6974 185.292C92.2068 185.608 92.5933 186.004 92.8568 186.478C93.1378 186.935 93.2784 187.444 93.2784 188.006C93.2784 188.129 93.2696 188.252 93.252 188.375C93.252 188.498 93.252 188.568 93.252 188.586H90.1164V188.402C90.1164 188.068 90.011 187.787 89.8002 187.558C89.6069 187.312 89.3171 187.119 88.9306 186.979C88.5617 186.838 88.0962 186.768 87.5341 186.768C87.1125 186.768 86.7436 186.803 86.4274 186.873C86.1112 186.944 85.8477 187.04 85.6369 187.163C85.4436 187.286 85.2943 187.427 85.1889 187.585C85.0835 187.743 85.0308 187.918 85.0308 188.112C85.0308 188.445 85.1626 188.709 85.4261 188.902C85.6896 189.095 86.0409 189.262 86.4801 189.403C86.9368 189.543 87.4287 189.693 87.9557 189.851C88.5881 190.026 89.238 190.211 89.9056 190.404C90.5731 190.58 91.1879 190.808 91.7501 191.089C92.3298 191.37 92.7953 191.766 93.1466 192.275C93.498 192.784 93.6736 193.461 93.6736 194.304C93.6736 195.112 93.5155 195.806 93.1993 196.386C92.9007 196.948 92.4703 197.404 91.9082 197.756C91.3636 198.09 90.7136 198.336 89.9583 198.494C89.2205 198.652 88.4124 198.731 87.5341 198.731ZM100.051 198.731C99.19 198.731 98.5137 198.564 98.0218 198.23C97.5299 197.879 97.1786 197.44 96.9678 196.913C96.7746 196.368 96.6779 195.815 96.6779 195.253V187.189H95.0179V184.554H96.757L97.3367 180.681H99.8926V184.554H102.29V187.189H99.8926V194.936C99.8926 195.305 99.9893 195.595 100.182 195.806C100.376 195.999 100.666 196.096 101.052 196.096H102.29V198.309C102.115 198.379 101.895 198.441 101.632 198.494C101.386 198.564 101.122 198.617 100.841 198.652C100.56 198.704 100.297 198.731 100.051 198.731ZM114.666 198.415V183.29H108.895V180.338H123.888V183.29H118.091V198.415H114.666ZM124.411 198.415V184.554H127.098L127.362 186.742H127.546C127.722 186.302 127.933 185.898 128.179 185.529C128.442 185.143 128.776 184.836 129.18 184.607C129.584 184.361 130.076 184.238 130.656 184.238C130.937 184.238 131.191 184.265 131.42 184.317C131.666 184.37 131.85 184.423 131.973 184.475V187.506H130.998C130.454 187.506 129.971 187.585 129.549 187.743C129.127 187.883 128.767 188.112 128.469 188.428C128.188 188.744 127.977 189.139 127.836 189.614C127.696 190.088 127.625 190.641 127.625 191.274V198.415H124.411ZM139.655 198.731C138.18 198.731 136.95 198.476 135.966 197.967C134.982 197.44 134.245 196.64 133.753 195.569C133.261 194.497 133.015 193.136 133.015 191.485C133.015 189.816 133.261 188.454 133.753 187.4C134.245 186.329 134.982 185.538 135.966 185.029C136.95 184.502 138.18 184.238 139.655 184.238C140.99 184.238 142.106 184.493 143.002 185.002C143.915 185.494 144.6 186.258 145.057 187.295C145.514 188.331 145.742 189.675 145.742 191.326V192.275H136.309C136.344 193.136 136.476 193.865 136.704 194.462C136.932 195.042 137.284 195.481 137.758 195.78C138.25 196.061 138.891 196.201 139.682 196.201C140.086 196.201 140.463 196.148 140.815 196.043C141.166 195.938 141.473 195.78 141.737 195.569C142 195.34 142.202 195.059 142.343 194.726C142.501 194.392 142.58 194.005 142.58 193.566H145.742C145.742 194.444 145.584 195.209 145.268 195.859C144.969 196.509 144.539 197.044 143.977 197.466C143.432 197.888 142.791 198.204 142.053 198.415C141.315 198.625 140.516 198.731 139.655 198.731ZM136.361 190.009H142.396C142.396 189.429 142.325 188.937 142.185 188.533C142.062 188.129 141.877 187.796 141.631 187.532C141.403 187.269 141.122 187.084 140.788 186.979C140.454 186.856 140.077 186.794 139.655 186.794C138.97 186.794 138.39 186.908 137.916 187.137C137.459 187.365 137.108 187.716 136.862 188.191C136.616 188.665 136.449 189.271 136.361 190.009ZM148.471 198.415V184.554H151.158L151.422 186.399H151.606C151.922 185.977 152.291 185.608 152.713 185.292C153.152 184.958 153.644 184.704 154.188 184.528C154.751 184.335 155.365 184.238 156.033 184.238C156.911 184.238 157.684 184.396 158.352 184.713C159.037 185.029 159.573 185.538 159.959 186.241C160.346 186.944 160.539 187.883 160.539 189.06V198.415H157.298V189.64C157.298 189.148 157.236 188.744 157.113 188.428C157.008 188.094 156.841 187.831 156.613 187.637C156.402 187.427 156.138 187.277 155.822 187.189C155.506 187.102 155.155 187.058 154.768 187.058C154.188 187.058 153.661 187.198 153.187 187.479C152.73 187.76 152.362 188.147 152.08 188.639C151.817 189.131 151.685 189.701 151.685 190.351V198.415H148.471ZM168.681 198.731C167.556 198.731 166.581 198.476 165.756 197.967C164.93 197.457 164.289 196.667 163.832 195.595C163.393 194.524 163.173 193.145 163.173 191.458C163.173 189.789 163.402 188.428 163.859 187.374C164.315 186.302 164.948 185.512 165.756 185.002C166.564 184.493 167.477 184.238 168.496 184.238C169.129 184.238 169.708 184.309 170.235 184.449C170.762 184.59 171.228 184.809 171.632 185.108C172.036 185.389 172.378 185.74 172.659 186.162H172.818V179.364H176.032V198.415H173.371L173.107 196.57H172.923C172.484 197.29 171.886 197.835 171.131 198.204C170.393 198.555 169.576 198.731 168.681 198.731ZM169.682 195.964C170.42 195.964 171.017 195.797 171.474 195.463C171.93 195.13 172.264 194.647 172.475 194.014C172.703 193.382 172.818 192.609 172.818 191.695V191.353C172.818 190.668 172.756 190.053 172.633 189.508C172.51 188.964 172.317 188.507 172.053 188.138C171.807 187.769 171.482 187.488 171.078 187.295C170.692 187.102 170.226 187.005 169.682 187.005C168.891 187.005 168.259 187.163 167.785 187.479C167.328 187.778 166.994 188.252 166.783 188.902C166.59 189.535 166.494 190.343 166.494 191.326V191.695C166.494 192.661 166.59 193.461 166.783 194.093C166.994 194.726 167.328 195.2 167.785 195.516C168.259 195.815 168.891 195.964 169.682 195.964ZM184.854 198.731C183.853 198.731 182.974 198.625 182.219 198.415C181.464 198.186 180.831 197.879 180.322 197.492C179.812 197.106 179.426 196.658 179.162 196.148C178.917 195.621 178.794 195.051 178.794 194.436C178.794 194.348 178.794 194.269 178.794 194.199C178.811 194.128 178.82 194.076 178.82 194.04H181.982C181.982 194.076 181.982 194.111 181.982 194.146C181.982 194.181 181.982 194.216 181.982 194.251C182 194.726 182.149 195.112 182.43 195.411C182.711 195.692 183.08 195.894 183.537 196.017C183.993 196.14 184.476 196.201 184.986 196.201C185.443 196.201 185.873 196.157 186.277 196.069C186.699 195.964 187.041 195.806 187.305 195.595C187.586 195.367 187.726 195.077 187.726 194.726C187.726 194.269 187.551 193.917 187.199 193.672C186.848 193.426 186.382 193.224 185.803 193.066C185.241 192.907 184.635 192.741 183.985 192.565C183.405 192.407 182.825 192.231 182.245 192.038C181.666 191.845 181.139 191.599 180.664 191.3C180.208 191.001 179.83 190.615 179.531 190.141C179.25 189.666 179.11 189.078 179.11 188.375C179.11 187.69 179.259 187.093 179.558 186.583C179.856 186.074 180.269 185.652 180.796 185.319C181.323 184.967 181.947 184.704 182.667 184.528C183.387 184.352 184.169 184.265 185.012 184.265C185.838 184.265 186.584 184.352 187.252 184.528C187.937 184.704 188.526 184.958 189.017 185.292C189.527 185.608 189.913 186.004 190.177 186.478C190.458 186.935 190.598 187.444 190.598 188.006C190.598 188.129 190.59 188.252 190.572 188.375C190.572 188.498 190.572 188.568 190.572 188.586H187.436V188.402C187.436 188.068 187.331 187.787 187.12 187.558C186.927 187.312 186.637 187.119 186.251 186.979C185.882 186.838 185.416 186.768 184.854 186.768C184.432 186.768 184.064 186.803 183.747 186.873C183.431 186.944 183.168 187.04 182.957 187.163C182.764 187.286 182.614 187.427 182.509 187.585C182.404 187.743 182.351 187.918 182.351 188.112C182.351 188.445 182.483 188.709 182.746 188.902C183.01 189.095 183.361 189.262 183.8 189.403C184.257 189.543 184.749 189.693 185.276 189.851C185.908 190.026 186.558 190.211 187.226 190.404C187.893 190.58 188.508 190.808 189.07 191.089C189.65 191.37 190.115 191.766 190.467 192.275C190.818 192.784 190.994 193.461 190.994 194.304C190.994 195.112 190.836 195.806 190.519 196.386C190.221 196.948 189.79 197.404 189.228 197.756C188.684 198.09 188.034 198.336 187.278 198.494C186.54 198.652 185.732 198.731 184.854 198.731Z" fill="#E8E7E7"/>
<line x1="164.933" y1="14.0664" x2="308.956" y2="14.0664" stroke="white" stroke-width="1.74221"/>
<line x1="309.827" y1="14.937" x2="309.827" y2="77.6566" stroke="white" stroke-width="1.74221"/>
<line x1="308.956" y1="78.5281" x2="164.933" y2="78.5281" stroke="white" stroke-width="1.74221"/>
<line x1="164.062" y1="77.657" x2="164.062" y2="14.9374" stroke="white" stroke-width="1.74221"/>
<line x1="175.386" y1="25.6814" x2="319.409" y2="25.6814" stroke="white" stroke-width="1.74221"/>
<line x1="320.281" y1="26.5522" x2="320.281" y2="89.2718" stroke="white" stroke-width="1.74221"/>
<line x1="319.409" y1="90.1426" x2="175.387" y2="90.1426" stroke="white" stroke-width="1.74221"/>
<line x1="174.515" y1="89.2715" x2="174.515" y2="26.5519" stroke="white" stroke-width="1.74221"/>
<path d="M197.926 37.535H217.253L217.625 44.8941H216.956C215.915 42.3915 214.825 40.6818 213.685 39.765C212.546 38.8235 210.873 38.3527 208.668 38.3527H207.367V49.8373H208.631C209.795 49.8373 210.774 49.4037 211.567 48.5365C212.36 47.6445 212.917 46.4551 213.239 44.9684H213.797V55.9699H213.165C212.719 54.1115 212.112 52.7859 211.344 51.993C210.6 51.2001 209.572 50.8037 208.259 50.8037H207.367V62.7343H208.779C211.059 62.7343 212.992 62.0529 214.577 60.6901C216.188 59.3273 217.291 57.5805 217.885 55.4496H218.629L218.331 63.552H197.926V62.7343H200.119V38.3527H197.926V37.535ZM228.256 55.8584C228.256 58.4601 228.392 60.1946 228.665 61.0618C228.937 61.9043 229.433 62.3255 230.151 62.3255C230.895 62.3255 231.526 62.0034 232.047 61.3591C232.592 60.7149 232.864 59.761 232.864 58.4973V50.3948C232.864 49.3294 232.654 48.425 232.233 47.6816C231.811 46.9383 231.192 46.5666 230.374 46.5666C229.557 46.5666 228.999 47.1117 228.702 48.202C228.404 49.2922 228.256 51.2001 228.256 53.9257V55.8584ZM233.348 63.552L232.939 60.9503C232.096 62.9325 230.387 63.9237 227.81 63.9237C225.679 63.9237 224.019 63.1556 222.829 61.6193C221.665 60.0831 221.082 57.7911 221.082 54.7434C221.082 48.5736 223.535 45.4888 228.442 45.4888C230.622 45.4888 232.059 46.0958 232.753 47.31V36.3457H230.486V35.6766H239.778V62.883H241.599V63.552H233.348ZM257.465 43.9277L258.506 43.2959C258.654 42.5278 258.357 42.1437 257.614 42.1437C256.548 42.1437 256.016 42.9614 256.016 44.5968C256.016 45.241 256.102 45.9843 256.276 46.8268C258.159 48.0905 259.1 49.7134 259.1 51.6957C259.1 53.6532 258.419 55.177 257.056 56.2672C255.693 57.3575 253.847 57.9026 251.518 57.9026C250.552 57.9026 249.548 57.8035 248.508 57.6053C247.418 58.299 246.872 58.8194 246.872 59.1663C246.872 59.5132 247.665 59.6866 249.251 59.6866H253.042C258.667 59.6866 261.479 61.706 261.479 65.7449C261.479 67.9253 260.624 69.6474 258.915 70.9111C257.23 72.1996 254.591 72.8438 250.998 72.8438C244.878 72.8438 241.818 71.5182 241.818 68.8669C241.818 67.4298 242.772 66.4387 244.68 65.8935L246.91 66.897C246.711 67.6156 246.612 68.297 246.612 68.9412C246.612 71.0722 248.198 72.1376 251.37 72.1376C253.302 72.1376 254.789 71.7783 255.83 71.0598C256.87 70.3412 257.391 69.4492 257.391 68.3837C257.391 67.3183 257.069 66.5997 256.424 66.228C255.805 65.8811 254.554 65.7077 252.67 65.7077H249.065C247.058 65.7077 245.621 65.3732 244.754 64.7042C243.887 64.0352 243.453 63.2175 243.453 62.2512C243.453 61.26 243.763 60.4424 244.382 59.7981C245.002 59.1291 246.104 58.3114 247.69 57.3451C244.816 56.5274 243.379 54.6443 243.379 51.6957C243.379 49.8373 244.048 48.3382 245.386 47.1985C246.724 46.0587 248.731 45.4888 251.407 45.4888C253.017 45.4888 254.393 45.7985 255.532 46.4179C255.384 45.7489 255.309 45.1419 255.309 44.5968C255.309 43.2092 255.681 42.2057 256.424 41.5862C257.168 40.9668 257.998 40.657 258.915 40.657C259.831 40.657 260.562 40.9048 261.107 41.4004C261.677 41.8712 261.962 42.5278 261.962 43.3702C261.962 44.2127 261.739 44.8445 261.293 45.2658C260.847 45.6622 260.302 45.8604 259.658 45.8604C259.038 45.8604 258.518 45.6994 258.097 45.3773C257.7 45.0304 257.49 44.5472 257.465 43.9277ZM249.586 50.878V52.885C249.586 54.5452 249.722 55.6726 249.994 56.2672C250.292 56.8619 250.725 57.1593 251.295 57.1593C251.89 57.1593 252.311 56.8743 252.559 56.3044C252.832 55.7097 252.968 54.508 252.968 52.6992V50.878C252.968 48.9453 252.844 47.6816 252.596 47.087C252.348 46.4675 251.927 46.1578 251.332 46.1578C250.763 46.1578 250.329 46.4799 250.032 47.1241C249.734 47.7436 249.586 48.9949 249.586 50.878ZM270.629 63.9237C267.433 63.9237 265.029 63.106 263.419 61.4706C261.833 59.8105 261.04 57.5185 261.04 54.5947C261.04 51.6461 261.932 49.3913 263.716 47.8303C265.525 46.2693 267.817 45.4888 270.592 45.4888C276.217 45.4888 278.917 48.3135 278.694 53.9629H268.213V55.4124C268.213 57.8407 268.523 59.6742 269.142 60.9131C269.762 62.152 270.84 62.7715 272.376 62.7715C275.25 62.7715 277.133 61.2352 278.025 58.1628L278.694 58.2743C278.224 60.0583 277.369 61.4459 276.13 62.437C274.916 63.4281 273.082 63.9237 270.629 63.9237ZM268.25 53.2195H272.079V51.3983C272.079 49.3913 271.955 48.0285 271.707 47.31C271.484 46.5666 271.013 46.1949 270.295 46.1949C269.601 46.1949 269.081 46.5914 268.734 47.3843C268.412 48.1524 268.25 49.4904 268.25 51.3983V53.2195Z" fill="white"/>
</svg>
