<svg width="336" height="336" viewBox="0 0 336 336" fill="none" xmlns="http://www.w3.org/2000/svg">
<rect width="334.865" height="334.865" transform="translate(0.264648 0.664551)" fill="#7995A2"/>
<path d="M50.9243 168.247C48.9663 168.247 47.292 167.844 45.9013 167.039C44.5106 166.234 43.4401 165.091 42.6899 163.608C41.958 162.108 41.592 160.342 41.592 158.311C41.592 156.792 41.8024 155.429 42.2233 154.221C42.6441 152.995 43.248 151.952 44.0348 151.092C44.84 150.214 45.819 149.546 46.9718 149.088C48.1429 148.631 49.4604 148.402 50.9243 148.402C52.0039 148.402 53.0378 148.549 54.0259 148.841C55.0323 149.134 55.9015 149.555 56.6334 150.104C56.9445 150.305 57.1458 150.552 57.2373 150.845C57.3471 151.12 57.3654 151.385 57.2922 151.641C57.2373 151.897 57.1184 152.117 56.9354 152.3C56.7524 152.464 56.5145 152.556 56.2217 152.574C55.9472 152.593 55.6453 152.492 55.3159 152.272C54.7121 151.815 54.0442 151.476 53.3122 151.257C52.5803 151.037 51.8118 150.927 51.0066 150.927C49.6159 150.927 48.4448 151.22 47.4933 151.806C46.5418 152.373 45.819 153.206 45.3249 154.303C44.8308 155.401 44.5838 156.737 44.5838 158.311C44.5838 159.885 44.8308 161.23 45.3249 162.346C45.819 163.444 46.5418 164.285 47.4933 164.871C48.4448 165.438 49.6159 165.722 51.0066 165.722C51.8118 165.722 52.5803 165.612 53.3122 165.392C54.0625 165.155 54.767 164.807 55.4257 164.349C55.7551 164.148 56.0479 164.057 56.3041 164.075C56.5785 164.093 56.8073 164.185 56.9903 164.349C57.1732 164.514 57.2922 164.725 57.3471 164.981C57.4203 165.219 57.4111 165.475 57.3196 165.749C57.2464 166.005 57.0726 166.225 56.7981 166.408C56.0479 167.012 55.1604 167.469 54.1357 167.78C53.111 168.091 52.0405 168.247 50.9243 168.247ZM64.9519 168.247C63.8723 168.247 62.9665 168.046 62.2345 167.643C61.5209 167.241 60.9811 166.646 60.6151 165.859C60.2674 165.054 60.0936 164.048 60.0936 162.84V155.813C60.0936 155.337 60.2125 154.99 60.4504 154.77C60.6883 154.532 61.0268 154.413 61.466 154.413C61.9052 154.413 62.2437 154.532 62.4816 154.77C62.7377 154.99 62.8658 155.337 62.8658 155.813V162.867C62.8658 163.947 63.0854 164.743 63.5246 165.255C63.9637 165.768 64.6591 166.024 65.6106 166.024C66.6536 166.024 67.4954 165.676 68.1358 164.981C68.7946 164.267 69.124 163.334 69.124 162.181V155.813C69.124 155.337 69.2429 154.99 69.4808 154.77C69.7187 154.532 70.0663 154.413 70.5238 154.413C70.963 154.413 71.3015 154.532 71.5394 154.77C71.7773 154.99 71.8962 155.337 71.8962 155.813V166.792C71.8962 167.726 71.4479 168.192 70.5512 168.192C70.1304 168.192 69.801 168.073 69.5631 167.835C69.3252 167.579 69.2063 167.231 69.2063 166.792V164.459L69.5631 165.063C69.1971 166.088 68.6116 166.875 67.8065 167.424C67.0013 167.973 66.0498 168.247 64.9519 168.247ZM77.2029 168.192C76.7454 168.192 76.3977 168.073 76.1598 167.835C75.922 167.579 75.803 167.231 75.803 166.792V155.813C75.803 155.356 75.922 155.008 76.1598 154.77C76.3977 154.532 76.7271 154.413 77.148 154.413C77.5871 154.413 77.9165 154.532 78.1361 154.77C78.374 155.008 78.4929 155.356 78.4929 155.813V157.817H78.2184C78.5112 156.719 79.051 155.886 79.8379 155.319C80.6247 154.752 81.6311 154.422 82.8571 154.331C83.1865 154.313 83.4427 154.395 83.6257 154.578C83.827 154.761 83.9367 155.045 83.955 155.429C83.9916 155.813 83.9093 156.124 83.708 156.362C83.5067 156.582 83.1957 156.71 82.7748 156.746L82.2533 156.801C81.0639 156.911 80.1581 157.286 79.5359 157.927C78.9138 158.567 78.6027 159.445 78.6027 160.562V166.792C78.6027 167.231 78.4838 167.579 78.2459 167.835C78.0263 168.073 77.6786 168.192 77.2029 168.192ZM90.1902 168.247C89.257 168.247 88.4153 168.064 87.665 167.698C86.9331 167.332 86.3567 166.838 85.9358 166.216C85.5149 165.594 85.3045 164.889 85.3045 164.102C85.3045 163.114 85.5515 162.337 86.0456 161.769C86.558 161.184 87.3905 160.772 88.5434 160.534C89.7145 160.278 91.2881 160.15 93.2644 160.15H94.5544V161.852H93.2918C91.9743 161.852 90.9313 161.916 90.1628 162.044C89.3942 162.172 88.8453 162.391 88.5159 162.703C88.2048 162.995 88.0493 163.407 88.0493 163.938C88.0493 164.633 88.2872 165.2 88.7629 165.639C89.2387 166.06 89.8974 166.271 90.7392 166.271C91.4162 166.271 92.0109 166.115 92.5233 165.804C93.0357 165.475 93.4382 165.036 93.731 164.487C94.0421 163.938 94.1976 163.306 94.1976 162.593V159.436C94.1976 158.393 93.978 157.643 93.5389 157.186C93.0997 156.728 92.3769 156.499 91.3705 156.499C90.7849 156.499 90.1719 156.573 89.5315 156.719C88.9093 156.865 88.2597 157.112 87.5827 157.46C87.2716 157.606 87.0063 157.652 86.7867 157.597C86.5671 157.542 86.3933 157.423 86.2652 157.24C86.1371 157.039 86.0639 156.829 86.0456 156.609C86.0456 156.371 86.1005 156.143 86.2103 155.923C86.3384 155.703 86.5488 155.539 86.8416 155.429C87.6467 155.045 88.4427 154.77 89.2295 154.605C90.0164 154.441 90.7575 154.358 91.4528 154.358C92.6788 154.358 93.6853 154.551 94.4721 154.935C95.2772 155.319 95.8719 155.905 96.2562 156.691C96.6405 157.478 96.8326 158.494 96.8326 159.738V166.792C96.8326 167.231 96.7228 167.579 96.5032 167.835C96.2837 168.073 95.9634 168.192 95.5426 168.192C95.14 168.192 94.8198 168.073 94.5819 167.835C94.344 167.579 94.2251 167.231 94.2251 166.792V165.008H94.4721C94.3257 165.685 94.0512 166.271 93.6487 166.765C93.2644 167.241 92.7795 167.607 92.1939 167.863C91.6084 168.119 90.9405 168.247 90.1902 168.247ZM106.36 168.247C105.262 168.247 104.338 168.055 103.588 167.671C102.838 167.286 102.279 166.719 101.913 165.969C101.548 165.219 101.365 164.304 101.365 163.224V156.746H99.7177C99.3517 156.746 99.0681 156.655 98.8668 156.472C98.6655 156.271 98.5648 156.005 98.5648 155.676C98.5648 155.328 98.6655 155.063 98.8668 154.88C99.0681 154.697 99.3517 154.605 99.7177 154.605H101.365V151.778C101.365 151.321 101.483 150.973 101.721 150.735C101.978 150.497 102.325 150.378 102.764 150.378C103.204 150.378 103.542 150.497 103.78 150.735C104.018 150.973 104.137 151.321 104.137 151.778V154.605H107.348C107.714 154.605 107.998 154.697 108.199 154.88C108.4 155.063 108.501 155.328 108.501 155.676C108.501 156.005 108.4 156.271 108.199 156.472C107.998 156.655 107.714 156.746 107.348 156.746H104.137V163.004C104.137 163.974 104.338 164.706 104.741 165.2C105.161 165.694 105.839 165.941 106.772 165.941C107.101 165.941 107.385 165.914 107.623 165.859C107.879 165.786 108.089 165.74 108.254 165.722C108.455 165.722 108.62 165.795 108.748 165.941C108.876 166.069 108.94 166.326 108.94 166.71C108.94 166.984 108.885 167.241 108.775 167.478C108.684 167.716 108.51 167.872 108.254 167.945C108.034 168.018 107.732 168.082 107.348 168.137C106.982 168.21 106.653 168.247 106.36 168.247ZM116.827 168.247C115.363 168.247 114.101 167.973 113.04 167.424C111.997 166.856 111.182 166.06 110.597 165.036C110.029 163.993 109.746 162.757 109.746 161.33C109.746 159.939 110.029 158.723 110.597 157.68C111.164 156.637 111.942 155.822 112.93 155.237C113.918 154.651 115.043 154.358 116.306 154.358C117.239 154.358 118.072 154.514 118.804 154.825C119.536 155.118 120.158 155.557 120.67 156.143C121.201 156.71 121.594 157.405 121.85 158.229C122.125 159.052 122.262 159.976 122.262 161.001C122.262 161.312 122.171 161.55 121.988 161.714C121.805 161.861 121.53 161.934 121.164 161.934H111.942V160.232H120.396L119.929 160.617C119.929 159.702 119.792 158.924 119.517 158.283C119.261 157.643 118.868 157.158 118.337 156.829C117.825 156.481 117.184 156.307 116.416 156.307C115.556 156.307 114.824 156.508 114.22 156.911C113.634 157.314 113.186 157.872 112.875 158.585C112.564 159.299 112.408 160.132 112.408 161.083V161.248C112.408 162.858 112.783 164.075 113.534 164.898C114.302 165.704 115.409 166.106 116.855 166.106C117.404 166.106 117.98 166.033 118.584 165.887C119.206 165.74 119.792 165.493 120.341 165.145C120.652 164.962 120.926 164.88 121.164 164.898C121.42 164.917 121.622 164.999 121.768 165.145C121.933 165.292 122.033 165.475 122.07 165.694C122.107 165.914 122.07 166.143 121.96 166.381C121.85 166.6 121.658 166.801 121.384 166.984C120.762 167.405 120.039 167.726 119.215 167.945C118.392 168.146 117.596 168.247 116.827 168.247ZM138.889 168.192C138.432 168.192 138.075 168.064 137.819 167.808C137.581 167.552 137.462 167.186 137.462 166.71V158.009L138.093 159.821L131.314 150.406C131.113 150.131 131.021 149.848 131.039 149.555C131.058 149.244 131.177 148.988 131.396 148.786C131.634 148.567 131.945 148.457 132.329 148.457C132.622 148.457 132.888 148.53 133.125 148.677C133.382 148.823 133.619 149.052 133.839 149.363L139.274 156.911H138.615L144.05 149.363C144.288 149.033 144.516 148.805 144.736 148.677C144.955 148.53 145.23 148.457 145.559 148.457C145.944 148.457 146.236 148.558 146.438 148.759C146.657 148.942 146.767 149.189 146.767 149.5C146.785 149.793 146.676 150.104 146.438 150.433L139.713 159.821L140.289 158.009V166.71C140.289 167.698 139.823 168.192 138.889 168.192ZM152.761 168.247C151.407 168.247 150.236 167.963 149.248 167.396C148.278 166.829 147.519 166.024 146.97 164.981C146.421 163.938 146.146 162.712 146.146 161.303C146.146 160.223 146.302 159.262 146.613 158.421C146.924 157.579 147.363 156.856 147.931 156.252C148.516 155.63 149.211 155.164 150.017 154.852C150.84 154.523 151.755 154.358 152.761 154.358C154.097 154.358 155.25 154.642 156.22 155.209C157.208 155.777 157.976 156.582 158.525 157.625C159.074 158.649 159.349 159.875 159.349 161.303C159.349 162.364 159.193 163.325 158.882 164.185C158.571 165.045 158.123 165.777 157.537 166.381C156.97 166.984 156.275 167.451 155.451 167.78C154.646 168.091 153.75 168.247 152.761 168.247ZM152.761 166.106C153.512 166.106 154.17 165.923 154.738 165.557C155.305 165.191 155.744 164.651 156.055 163.938C156.385 163.224 156.549 162.346 156.549 161.303C156.549 159.729 156.202 158.54 155.506 157.734C154.811 156.929 153.896 156.527 152.761 156.527C151.993 156.527 151.325 156.71 150.758 157.076C150.19 157.423 149.742 157.954 149.413 158.668C149.102 159.381 148.946 160.26 148.946 161.303C148.946 162.858 149.294 164.048 149.989 164.871C150.684 165.694 151.609 166.106 152.761 166.106ZM167.238 168.247C166.159 168.247 165.253 168.046 164.521 167.643C163.807 167.241 163.267 166.646 162.901 165.859C162.554 165.054 162.38 164.048 162.38 162.84V155.813C162.38 155.337 162.499 154.99 162.737 154.77C162.975 154.532 163.313 154.413 163.752 154.413C164.192 154.413 164.53 154.532 164.768 154.77C165.024 154.99 165.152 155.337 165.152 155.813V162.867C165.152 163.947 165.372 164.743 165.811 165.255C166.25 165.768 166.945 166.024 167.897 166.024C168.94 166.024 169.782 165.676 170.422 164.981C171.081 164.267 171.41 163.334 171.41 162.181V155.813C171.41 155.337 171.529 154.99 171.767 154.77C172.005 154.532 172.353 154.413 172.81 154.413C173.249 154.413 173.588 154.532 173.826 154.77C174.064 154.99 174.183 155.337 174.183 155.813V166.792C174.183 167.726 173.734 168.192 172.838 168.192C172.417 168.192 172.087 168.073 171.849 167.835C171.612 167.579 171.493 167.231 171.493 166.792V164.459L171.849 165.063C171.484 166.088 170.898 166.875 170.093 167.424C169.288 167.973 168.336 168.247 167.238 168.247ZM179.489 168.192C179.032 168.192 178.684 168.073 178.446 167.835C178.208 167.579 178.089 167.231 178.089 166.792V155.813C178.089 155.356 178.208 155.008 178.446 154.77C178.684 154.532 179.013 154.413 179.434 154.413C179.873 154.413 180.203 154.532 180.422 154.77C180.66 155.008 180.779 155.356 180.779 155.813V157.817H180.505C180.798 156.719 181.337 155.886 182.124 155.319C182.911 154.752 183.917 154.422 185.143 154.331C185.473 154.313 185.729 154.395 185.912 154.578C186.113 154.761 186.223 155.045 186.241 155.429C186.278 155.813 186.196 156.124 185.994 156.362C185.793 156.582 185.482 156.71 185.061 156.746L184.54 156.801C183.35 156.911 182.444 157.286 181.822 157.927C181.2 158.567 180.889 159.445 180.889 160.562V166.792C180.889 167.231 180.77 167.579 180.532 167.835C180.313 168.073 179.965 168.192 179.489 168.192ZM50.9243 208.247C48.9663 208.247 47.292 207.844 45.9013 207.039C44.5106 206.234 43.4401 205.091 42.6899 203.608C41.958 202.108 41.592 200.342 41.592 198.311C41.592 196.792 41.8024 195.429 42.2233 194.221C42.6441 192.995 43.248 191.952 44.0348 191.092C44.84 190.214 45.819 189.546 46.9718 189.088C48.1429 188.631 49.4604 188.402 50.9243 188.402C52.0039 188.402 53.0378 188.549 54.0259 188.841C55.0323 189.134 55.9015 189.555 56.6334 190.104C56.9445 190.305 57.1458 190.552 57.2373 190.845C57.3471 191.12 57.3654 191.385 57.2922 191.641C57.2373 191.897 57.1184 192.117 56.9354 192.3C56.7524 192.464 56.5145 192.556 56.2217 192.574C55.9472 192.593 55.6453 192.492 55.3159 192.272C54.7121 191.815 54.0442 191.476 53.3122 191.257C52.5803 191.037 51.8118 190.927 51.0066 190.927C49.6159 190.927 48.4448 191.22 47.4933 191.806C46.5418 192.373 45.819 193.206 45.3249 194.303C44.8308 195.401 44.5838 196.737 44.5838 198.311C44.5838 199.885 44.8308 201.23 45.3249 202.346C45.819 203.444 46.5418 204.285 47.4933 204.871C48.4448 205.438 49.6159 205.722 51.0066 205.722C51.8118 205.722 52.5803 205.612 53.3122 205.392C54.0625 205.155 54.767 204.807 55.4257 204.349C55.7551 204.148 56.0479 204.057 56.3041 204.075C56.5785 204.093 56.8073 204.185 56.9903 204.349C57.1732 204.514 57.2922 204.725 57.3471 204.981C57.4203 205.219 57.4111 205.475 57.3196 205.749C57.2464 206.005 57.0726 206.225 56.7981 206.408C56.0479 207.012 55.1604 207.469 54.1357 207.78C53.111 208.091 52.0405 208.247 50.9243 208.247ZM64.8069 208.247C63.3796 208.247 62.3 207.835 61.5681 207.012C60.8544 206.17 60.4976 204.962 60.4976 203.389V189.857C60.4976 189.399 60.6165 189.052 60.8544 188.814C61.0923 188.576 61.4308 188.457 61.87 188.457C62.3092 188.457 62.6477 188.576 62.8856 188.814C63.1417 189.052 63.2698 189.399 63.2698 189.857V203.224C63.2698 204.139 63.4528 204.825 63.8188 205.283C64.2031 205.722 64.752 205.941 65.4657 205.941C65.6303 205.941 65.7767 205.941 65.9048 205.941C66.0329 205.923 66.161 205.905 66.2891 205.887C66.5087 205.868 66.6642 205.932 66.7557 206.079C66.8472 206.207 66.893 206.481 66.893 206.902C66.893 207.286 66.8106 207.588 66.6459 207.808C66.4812 208.009 66.2159 208.137 65.8499 208.192C65.6852 208.21 65.5114 208.22 65.3284 208.22C65.1454 208.238 64.9716 208.247 64.8069 208.247ZM74.5724 208.247C73.2183 208.247 72.0472 207.963 71.059 207.396C70.0892 206.829 69.3298 206.024 68.7809 204.981C68.2319 203.938 67.9574 202.712 67.9574 201.303C67.9574 200.223 68.113 199.262 68.424 198.421C68.7351 197.579 69.1743 196.856 69.7415 196.252C70.3271 195.63 71.0224 195.164 71.8276 194.852C72.651 194.523 73.5659 194.358 74.5724 194.358C75.9082 194.358 77.061 194.642 78.0308 195.209C79.0189 195.777 79.7875 196.582 80.3364 197.625C80.8854 198.649 81.1599 199.875 81.1599 201.303C81.1599 202.364 81.0043 203.325 80.6932 204.185C80.3822 205.045 79.9339 205.777 79.3483 206.381C78.781 206.984 78.0857 207.451 77.2623 207.78C76.4571 208.091 75.5605 208.247 74.5724 208.247ZM74.5724 206.106C75.3226 206.106 75.9814 205.923 76.5486 205.557C77.1159 205.191 77.555 204.651 77.8661 203.938C78.1955 203.224 78.3602 202.346 78.3602 201.303C78.3602 199.729 78.0125 198.54 77.3172 197.734C76.6218 196.929 75.7069 196.527 74.5724 196.527C73.8038 196.527 73.1359 196.71 72.5687 197.076C72.0014 197.423 71.5531 197.954 71.2237 198.668C70.9126 199.381 70.7571 200.26 70.7571 201.303C70.7571 202.858 71.1048 204.048 71.8001 204.871C72.4955 205.694 73.4196 206.106 74.5724 206.106ZM88.9669 208.247C88.1617 208.247 87.3291 208.156 86.4691 207.973C85.6274 207.79 84.8497 207.478 84.136 207.039C83.8982 206.875 83.7335 206.692 83.642 206.49C83.5505 206.289 83.5139 206.088 83.5322 205.887C83.5688 205.667 83.6511 205.484 83.7792 205.338C83.9256 205.173 84.0994 205.072 84.3007 205.036C84.5203 204.999 84.749 205.045 84.9869 205.173C85.7006 205.575 86.3868 205.859 87.0455 206.024C87.7043 206.17 88.3539 206.243 88.9943 206.243C89.9641 206.243 90.6961 206.069 91.1901 205.722C91.6842 205.374 91.9312 204.908 91.9312 204.322C91.9312 203.846 91.7666 203.48 91.4372 203.224C91.1078 202.95 90.6137 202.739 89.955 202.593L87.3474 202.071C86.2129 201.833 85.3529 201.413 84.7673 200.809C84.1818 200.205 83.889 199.436 83.889 198.503C83.889 197.661 84.1177 196.929 84.5752 196.307C85.0327 195.685 85.6731 195.209 86.4966 194.88C87.32 194.532 88.2715 194.358 89.3511 194.358C90.1563 194.358 90.9157 194.459 91.6293 194.66C92.343 194.862 93.0017 195.164 93.6056 195.566C93.8434 195.694 93.999 195.868 94.0722 196.088C94.1454 196.289 94.1545 196.49 94.0996 196.691C94.063 196.893 93.9715 197.076 93.8251 197.24C93.6788 197.387 93.4958 197.478 93.2762 197.515C93.0749 197.533 92.8462 197.478 92.59 197.35C92.041 197.003 91.4921 196.756 90.9431 196.609C90.4125 196.463 89.8818 196.39 89.3511 196.39C88.3813 196.39 87.6494 196.573 87.1553 196.938C86.6795 197.286 86.4417 197.762 86.4417 198.366C86.4417 198.823 86.588 199.198 86.8808 199.491C87.1736 199.784 87.6311 199.994 88.2532 200.122L90.8608 200.644C92.0502 200.882 92.9468 201.284 93.5507 201.852C94.1728 202.419 94.4839 203.187 94.4839 204.157C94.4839 205.42 93.9807 206.417 92.9743 207.149C91.9678 207.881 90.632 208.247 88.9669 208.247ZM103.854 208.247C102.39 208.247 101.127 207.973 100.066 207.424C99.0231 206.856 98.2088 206.06 97.6233 205.036C97.056 203.993 96.7724 202.757 96.7724 201.33C96.7724 199.939 97.056 198.723 97.6233 197.68C98.1905 196.637 98.9682 195.822 99.9563 195.237C100.944 194.651 102.07 194.358 103.332 194.358C104.266 194.358 105.098 194.514 105.83 194.825C106.562 195.118 107.184 195.557 107.697 196.143C108.227 196.71 108.621 197.405 108.877 198.229C109.151 199.052 109.289 199.976 109.289 201.001C109.289 201.312 109.197 201.55 109.014 201.714C108.831 201.861 108.557 201.934 108.191 201.934H98.9682V200.232H107.422L106.956 200.617C106.956 199.702 106.818 198.924 106.544 198.283C106.288 197.643 105.894 197.158 105.364 196.829C104.851 196.481 104.211 196.307 103.442 196.307C102.582 196.307 101.85 196.508 101.246 196.911C100.661 197.314 100.213 197.872 99.9014 198.585C99.5904 199.299 99.4348 200.132 99.4348 201.083V201.248C99.4348 202.858 99.8099 204.075 100.56 204.898C101.329 205.704 102.436 206.106 103.881 206.106C104.43 206.106 105.007 206.033 105.611 205.887C106.233 205.74 106.818 205.493 107.367 205.145C107.678 204.962 107.953 204.88 108.191 204.898C108.447 204.917 108.648 204.999 108.795 205.145C108.959 205.292 109.06 205.475 109.096 205.694C109.133 205.914 109.096 206.143 108.987 206.381C108.877 206.6 108.685 206.801 108.41 206.984C107.788 207.405 107.065 207.726 106.242 207.945C105.418 208.146 104.622 208.247 103.854 208.247ZM117.993 208.247C116.895 208.247 115.971 208.055 115.221 207.671C114.471 207.286 113.913 206.719 113.547 205.969C113.181 205.219 112.998 204.304 112.998 203.224V196.746H111.351C110.985 196.746 110.701 196.655 110.5 196.472C110.299 196.271 110.198 196.005 110.198 195.676C110.198 195.328 110.299 195.063 110.5 194.88C110.701 194.697 110.985 194.605 111.351 194.605H112.998V191.778C112.998 191.321 113.117 190.973 113.355 190.735C113.611 190.497 113.958 190.378 114.398 190.378C114.837 190.378 115.175 190.497 115.413 190.735C115.651 190.973 115.77 191.321 115.77 191.778V194.605H118.981C119.347 194.605 119.631 194.697 119.832 194.88C120.034 195.063 120.134 195.328 120.134 195.676C120.134 196.005 120.034 196.271 119.832 196.472C119.631 196.655 119.347 196.746 118.981 196.746H115.77V203.004C115.77 203.974 115.971 204.706 116.374 205.2C116.795 205.694 117.472 205.941 118.405 205.941C118.734 205.941 119.018 205.914 119.256 205.859C119.512 205.786 119.722 205.74 119.887 205.722C120.088 205.722 120.253 205.795 120.381 205.941C120.509 206.069 120.573 206.326 120.573 206.71C120.573 206.984 120.518 207.241 120.409 207.478C120.317 207.716 120.143 207.872 119.887 207.945C119.668 208.018 119.366 208.082 118.981 208.137C118.615 208.21 118.286 208.247 117.993 208.247Z" fill="#EEF5F8"/>
<line x1="183" y1="9.20658" x2="314.178" y2="9.20658" stroke="white" stroke-width="1.58683"/>
<line x1="314.972" y1="9.99976" x2="314.972" y2="67.1257" stroke="white" stroke-width="1.58683"/>
<line x1="314.178" y1="67.9194" x2="183" y2="67.9194" stroke="white" stroke-width="1.58683"/>
<line x1="182.207" y1="67.126" x2="182.207" y2="10" stroke="white" stroke-width="1.58683"/>
<line x1="192.521" y1="19.7857" x2="323.699" y2="19.7857" stroke="white" stroke-width="1.58683"/>
<line x1="324.493" y1="20.5791" x2="324.493" y2="77.7051" stroke="white" stroke-width="1.58683"/>
<line x1="323.699" y1="78.498" x2="192.521" y2="78.498" stroke="white" stroke-width="1.58683"/>
<line x1="191.728" y1="77.7046" x2="191.728" y2="20.5786" stroke="white" stroke-width="1.58683"/>
<path d="M213.051 29.8822H230.654L230.993 36.5849H230.383C229.435 34.3055 228.442 32.7483 227.404 31.9133C226.366 31.0557 224.843 30.6269 222.834 30.6269H221.649V41.0873H222.8C223.861 41.0873 224.753 40.6924 225.475 39.9025C226.197 39.09 226.705 38.0067 226.998 36.6526H227.506V46.673H226.93C226.524 44.9803 225.971 43.7729 225.272 43.0508C224.595 42.3286 223.658 41.9675 222.462 41.9675H221.649V52.8341H222.936C225.012 52.8341 226.772 52.2135 228.217 50.9722C229.684 49.731 230.688 48.1399 231.23 46.199H231.907L231.636 53.5789H213.051V52.8341H215.048V30.6269H213.051V29.8822ZM240.675 46.5714C240.675 48.9411 240.799 50.5209 241.048 51.3107C241.296 52.0781 241.747 52.4617 242.402 52.4617C243.079 52.4617 243.654 52.1683 244.128 51.5816C244.625 50.9948 244.873 50.1259 244.873 48.9749V41.5951C244.873 40.6247 244.681 39.8009 244.297 39.1239C243.914 38.4468 243.35 38.1083 242.605 38.1083C241.86 38.1083 241.352 38.6048 241.081 39.5978C240.811 40.5908 240.675 42.3286 240.675 44.8111V46.5714ZM245.313 53.5789L244.941 51.2092C244.173 53.0147 242.616 53.9174 240.269 53.9174C238.328 53.9174 236.816 53.2178 235.733 51.8185C234.672 50.4193 234.142 48.3317 234.142 45.5558C234.142 39.9363 236.376 37.1266 240.845 37.1266C242.831 37.1266 244.139 37.6795 244.771 38.7853V28.7989H242.706V28.1895H251.17V52.9695H252.828V53.5789H245.313ZM267.28 35.7048L268.227 35.1293C268.363 34.4297 268.092 34.0799 267.415 34.0799C266.445 34.0799 265.959 34.8246 265.959 36.3141C265.959 36.9009 266.038 37.5779 266.196 38.3453C267.911 39.4962 268.769 40.9745 268.769 42.7799C268.769 44.5628 268.148 45.9508 266.907 46.9438C265.666 47.9368 263.985 48.4333 261.863 48.4333C260.983 48.4333 260.069 48.343 259.121 48.1625C258.128 48.7944 257.632 49.2683 257.632 49.5843C257.632 49.9002 258.354 50.0582 259.798 50.0582H263.251C268.374 50.0582 270.936 51.8975 270.936 55.5762C270.936 57.5622 270.157 59.1307 268.6 60.2816C267.065 61.4552 264.662 62.042 261.389 62.042C255.815 62.042 253.028 60.8346 253.028 58.4198C253.028 57.1108 253.897 56.2081 255.634 55.7116L257.665 56.6256C257.485 57.2801 257.395 57.9007 257.395 58.4875C257.395 60.4283 258.839 61.3988 261.728 61.3988C263.488 61.3988 264.842 61.0715 265.79 60.417C266.738 59.7626 267.212 58.9501 267.212 57.9797C267.212 57.0092 266.918 56.3548 266.332 56.0162C265.767 55.7003 264.628 55.5423 262.913 55.5423H259.629C257.801 55.5423 256.492 55.2376 255.702 54.6283C254.912 54.0189 254.517 53.2742 254.517 52.394C254.517 51.4913 254.799 50.7465 255.364 50.1598C255.928 49.5504 256.932 48.8057 258.376 47.9255C255.758 47.1807 254.45 45.4656 254.45 42.7799C254.45 41.0873 255.059 39.7219 256.278 38.6838C257.496 37.6456 259.324 37.1266 261.762 37.1266C263.229 37.1266 264.481 37.4087 265.519 37.9729C265.384 37.3635 265.316 36.8106 265.316 36.3141C265.316 35.0503 265.655 34.1363 266.332 33.5721C267.009 33.0079 267.765 32.7258 268.6 32.7258C269.435 32.7258 270.101 32.9514 270.597 33.4028C271.116 33.8316 271.376 34.4297 271.376 35.197C271.376 35.9643 271.173 36.5398 270.766 36.9235C270.36 37.2846 269.864 37.4651 269.277 37.4651C268.713 37.4651 268.239 37.3184 267.855 37.025C267.494 36.7091 267.302 36.269 267.28 35.7048ZM260.103 42.0352V43.8632C260.103 45.3753 260.227 46.4021 260.475 46.9438C260.746 47.4854 261.141 47.7562 261.66 47.7562C262.202 47.7562 262.585 47.4967 262.811 46.9776C263.059 46.436 263.183 45.3414 263.183 43.6939V42.0352C263.183 40.2749 263.071 39.1239 262.845 38.5822C262.619 38.018 262.236 37.7359 261.694 37.7359C261.175 37.7359 260.78 38.0293 260.509 38.6161C260.238 39.1803 260.103 40.32 260.103 42.0352ZM279.27 53.9174C276.358 53.9174 274.169 53.1726 272.702 51.6831C271.258 50.171 270.536 48.0835 270.536 45.4204C270.536 42.7348 271.348 40.6811 272.973 39.2593C274.621 37.8375 276.708 37.1266 279.236 37.1266C284.359 37.1266 286.819 39.6994 286.616 44.8449H277.069V46.1652C277.069 48.3769 277.351 50.0469 277.916 51.1753C278.48 52.3037 279.462 52.868 280.861 52.868C283.479 52.868 285.194 51.4687 286.006 48.6703L286.616 48.7718C286.187 50.3967 285.408 51.6606 284.28 52.5633C283.174 53.466 281.504 53.9174 279.27 53.9174ZM277.103 44.1679H280.59V42.5091C280.59 40.6811 280.477 39.4398 280.251 38.7853C280.048 38.1083 279.619 37.7698 278.965 37.7698C278.333 37.7698 277.859 38.1309 277.543 38.853C277.25 39.5527 277.103 40.7714 277.103 42.5091V44.1679Z" fill="white"/>
</svg>
