<svg width="339" height="337" viewBox="0 0 339 337" fill="none" xmlns="http://www.w3.org/2000/svg">
<rect width="338.158" height="335.962" transform="translate(0.577148 0.664551)" fill="#E2D0C3"/>
<path d="M30.9015 160.415V145.351H38.4113C39.4799 145.351 40.3656 145.549 41.0683 145.944C41.7709 146.339 42.2979 146.888 42.6493 147.591C43.0152 148.279 43.1982 149.099 43.1982 150.05C43.1982 151.002 43.0079 151.843 42.6273 152.575C42.2467 153.293 41.6904 153.849 40.9585 154.244C40.2412 154.64 39.3628 154.837 38.3235 154.837H33.3609V160.415H30.9015ZM33.3609 152.729H38.2137C38.9895 152.729 39.597 152.495 40.0362 152.026C40.49 151.558 40.7169 150.907 40.7169 150.072C40.7169 149.516 40.6218 149.047 40.4315 148.667C40.2412 148.272 39.963 147.971 39.597 147.767C39.2311 147.562 38.77 147.459 38.2137 147.459H33.3609V152.729ZM49.8126 160.678C48.6269 160.678 47.6315 160.466 46.8263 160.041C46.0358 159.602 45.4356 158.936 45.0257 158.043C44.6158 157.15 44.4109 156.016 44.4109 154.64C44.4109 153.249 44.6158 152.114 45.0257 151.236C45.4356 150.343 46.0431 149.684 46.8483 149.26C47.6534 148.821 48.6562 148.601 49.8566 148.601C50.9545 148.601 51.8694 148.813 52.6014 149.238C53.3479 149.648 53.9115 150.277 54.2921 151.126C54.6728 151.975 54.8631 153.044 54.8631 154.332V155.21H46.7604C46.7897 156.03 46.9141 156.718 47.1337 157.275C47.3533 157.816 47.6827 158.219 48.1219 158.482C48.5757 158.731 49.1466 158.856 49.8346 158.856C50.2591 158.856 50.6397 158.804 50.9764 158.702C51.3131 158.585 51.5986 158.424 51.8328 158.219C52.067 157.999 52.25 157.743 52.3818 157.45C52.5135 157.143 52.5794 156.799 52.5794 156.418H54.8191C54.8191 157.106 54.702 157.714 54.4678 158.241C54.2336 158.768 53.8896 159.214 53.4358 159.58C52.9966 159.931 52.4696 160.202 51.8548 160.393C51.2399 160.583 50.5592 160.678 49.8126 160.678ZM46.8044 153.542H52.4696C52.4696 152.971 52.4037 152.495 52.272 152.114C52.1549 151.719 51.9792 151.397 51.745 151.148C51.5108 150.899 51.2326 150.724 50.9106 150.621C50.5885 150.504 50.2225 150.445 49.8126 150.445C49.1978 150.445 48.6708 150.555 48.2316 150.775C47.8071 150.994 47.4777 151.338 47.2435 151.807C47.0093 152.261 46.8629 152.839 46.8044 153.542ZM57.1843 160.415V148.864H59.0727L59.2703 150.731H59.4021C59.5338 150.365 59.7022 150.021 59.9071 149.699C60.1267 149.377 60.4049 149.113 60.7416 148.908C61.0929 148.703 61.5174 148.601 62.0151 148.601C62.2494 148.601 62.4543 148.623 62.63 148.667C62.8203 148.711 62.9667 148.747 63.0691 148.777V150.929H62.3006C61.8321 150.929 61.4149 151.002 61.049 151.148C60.6976 151.295 60.3975 151.514 60.1487 151.807C59.9145 152.085 59.7388 152.429 59.6217 152.839C59.5192 153.249 59.468 153.71 59.468 154.222V160.415H57.1843ZM69.0353 160.678C68.2301 160.678 67.5202 160.59 66.9053 160.415C66.2905 160.239 65.7781 159.997 65.3682 159.69C64.9584 159.383 64.6436 159.017 64.424 158.592C64.2191 158.153 64.1166 157.67 64.1166 157.143C64.1166 157.07 64.1166 157.004 64.1166 156.945C64.1313 156.887 64.1386 156.835 64.1386 156.791H66.4003C66.4003 156.835 66.4003 156.879 66.4003 156.923C66.4003 156.952 66.4003 156.989 66.4003 157.033C66.4003 157.487 66.5247 157.853 66.7736 158.131C67.0224 158.394 67.3518 158.585 67.7617 158.702C68.1862 158.804 68.6474 158.856 69.1451 158.856C69.5842 158.856 69.9868 158.804 70.3528 158.702C70.7334 158.585 71.0408 158.416 71.275 158.197C71.5239 157.977 71.6483 157.699 71.6483 157.362C71.6483 156.923 71.4946 156.586 71.1872 156.352C70.8798 156.118 70.4772 155.935 69.9795 155.803C69.4818 155.657 68.9621 155.503 68.4204 155.342C67.9374 155.21 67.4543 155.071 66.9712 154.925C66.5028 154.764 66.0782 154.559 65.6976 154.31C65.317 154.061 65.0096 153.747 64.7754 153.366C64.5411 152.985 64.424 152.51 64.424 151.939C64.424 151.397 64.5411 150.921 64.7754 150.511C65.0096 150.101 65.3316 149.757 65.7415 149.479C66.1661 149.201 66.6638 148.989 67.2347 148.843C67.8203 148.696 68.457 148.623 69.1451 148.623C69.8624 148.623 70.4992 148.703 71.0554 148.864C71.6117 149.011 72.0802 149.223 72.4608 149.501C72.856 149.779 73.1561 150.116 73.3611 150.511C73.566 150.892 73.6685 151.302 73.6685 151.741C73.6685 151.829 73.6612 151.924 73.6465 152.026C73.6465 152.114 73.6465 152.173 73.6465 152.202H71.4068V152.005C71.4068 151.712 71.3263 151.448 71.1652 151.214C71.0042 150.98 70.748 150.789 70.3967 150.643C70.06 150.497 69.6062 150.424 69.0353 150.424C68.6547 150.424 68.318 150.46 68.0252 150.533C67.7324 150.592 67.4909 150.68 67.3006 150.797C67.1103 150.914 66.9639 151.053 66.8614 151.214C66.7736 151.375 66.7297 151.558 66.7297 151.763C66.7297 152.1 66.8468 152.363 67.081 152.553C67.3299 152.729 67.6519 152.883 68.0472 153.015C68.4424 153.132 68.8669 153.263 69.3207 153.41C69.8477 153.556 70.3821 153.71 70.9237 153.871C71.4653 154.017 71.9631 154.208 72.4169 154.442C72.8853 154.676 73.2586 154.998 73.5367 155.408C73.8295 155.818 73.9759 156.367 73.9759 157.055C73.9759 157.684 73.8515 158.233 73.6026 158.702C73.3538 159.17 73.0024 159.551 72.5486 159.844C72.1094 160.122 71.5898 160.327 70.9896 160.458C70.3894 160.605 69.7379 160.678 69.0353 160.678ZM81.2093 160.678C80.0089 160.678 78.9915 160.466 78.1571 160.041C77.3373 159.602 76.7151 158.936 76.2906 158.043C75.8807 157.15 75.6758 156.016 75.6758 154.64C75.6758 153.249 75.8807 152.114 76.2906 151.236C76.7151 150.343 77.3373 149.684 78.1571 149.26C78.9915 148.821 80.0089 148.601 81.2093 148.601C82.439 148.601 83.4637 148.821 84.2835 149.26C85.1032 149.684 85.7181 150.343 86.128 151.236C86.5525 152.114 86.7647 153.249 86.7647 154.64C86.7647 156.016 86.5525 157.15 86.128 158.043C85.7181 158.936 85.1032 159.602 84.2835 160.041C83.4637 160.466 82.439 160.678 81.2093 160.678ZM81.2093 158.79C81.9412 158.79 82.5414 158.651 83.0099 158.372C83.4783 158.08 83.8223 157.64 84.0419 157.055C84.2761 156.469 84.3932 155.73 84.3932 154.837V154.442C84.3932 153.549 84.2761 152.81 84.0419 152.224C83.8223 151.639 83.4783 151.207 83.0099 150.929C82.5414 150.636 81.9412 150.489 81.2093 150.489C80.492 150.489 79.8991 150.636 79.4307 150.929C78.9622 151.207 78.6109 151.639 78.3767 152.224C78.1571 152.81 78.0473 153.549 78.0473 154.442V154.837C78.0473 155.73 78.1571 156.469 78.3767 157.055C78.6109 157.64 78.9622 158.08 79.4307 158.372C79.8991 158.651 80.492 158.79 81.2093 158.79ZM89.0925 160.415V148.864H90.9809L91.1785 150.511H91.3323C91.6104 150.087 91.9398 149.735 92.3204 149.457C92.701 149.179 93.1182 148.967 93.572 148.821C94.0404 148.674 94.5528 148.601 95.1091 148.601C95.841 148.601 96.4851 148.733 97.0414 148.996C97.5977 149.245 98.0295 149.655 98.337 150.226C98.659 150.797 98.82 151.565 98.82 152.532V160.415H96.5364V152.883C96.5364 152.444 96.4778 152.078 96.3607 151.785C96.2582 151.492 96.1045 151.258 95.8996 151.082C95.6946 150.907 95.4531 150.782 95.175 150.709C94.8968 150.636 94.5894 150.599 94.2527 150.599C93.7257 150.599 93.2426 150.731 92.8035 150.994C92.3789 151.243 92.0349 151.595 91.7714 152.048C91.5079 152.502 91.3762 153.037 91.3762 153.651V160.415H89.0925ZM104.6 160.678C104.234 160.678 103.839 160.634 103.415 160.546C102.99 160.458 102.588 160.297 102.207 160.063C101.841 159.829 101.541 159.507 101.307 159.097C101.072 158.673 100.955 158.124 100.955 157.45C100.955 156.66 101.138 156.008 101.504 155.496C101.87 154.984 102.383 154.581 103.041 154.288C103.7 153.995 104.483 153.79 105.391 153.673C106.313 153.556 107.316 153.498 108.399 153.498V152.356C108.399 151.975 108.333 151.639 108.202 151.346C108.084 151.053 107.858 150.826 107.521 150.665C107.199 150.504 106.73 150.424 106.116 150.424C105.501 150.424 105.018 150.504 104.666 150.665C104.33 150.811 104.088 151.002 103.942 151.236C103.81 151.456 103.744 151.697 103.744 151.961V152.29H101.548C101.534 152.217 101.526 152.144 101.526 152.07C101.526 151.997 101.526 151.909 101.526 151.807C101.526 151.119 101.717 150.541 102.097 150.072C102.492 149.589 103.041 149.223 103.744 148.974C104.447 148.725 105.259 148.601 106.181 148.601C107.177 148.601 108.004 148.747 108.663 149.04C109.336 149.318 109.841 149.721 110.178 150.248C110.515 150.775 110.683 151.412 110.683 152.158V158.021C110.683 158.299 110.749 158.497 110.88 158.614C111.027 158.731 111.195 158.79 111.386 158.79H112.176V160.327C112 160.4 111.781 160.473 111.517 160.546C111.254 160.619 110.946 160.656 110.595 160.656C110.2 160.656 109.863 160.583 109.585 160.437C109.321 160.305 109.102 160.114 108.926 159.866C108.765 159.602 108.655 159.309 108.597 158.987H108.465C108.202 159.324 107.88 159.624 107.499 159.888C107.133 160.136 106.708 160.327 106.225 160.458C105.742 160.605 105.201 160.678 104.6 160.678ZM105.237 158.79C105.691 158.79 106.108 158.724 106.489 158.592C106.884 158.446 107.221 158.248 107.499 157.999C107.777 157.736 107.997 157.428 108.158 157.077C108.319 156.711 108.399 156.316 108.399 155.891V155.123C107.389 155.123 106.503 155.181 105.742 155.298C104.981 155.415 104.388 155.635 103.964 155.957C103.539 156.264 103.327 156.696 103.327 157.253C103.327 157.589 103.4 157.875 103.546 158.109C103.693 158.329 103.912 158.497 104.205 158.614C104.498 158.731 104.842 158.79 105.237 158.79ZM113.753 160.415V144.539H116.036V160.415H113.753ZM118.985 146.866V144.539H121.269V146.866H118.985ZM118.985 160.415V148.864H121.269V160.415H118.985ZM123.361 160.415V159.273L129.509 150.753H123.778V148.864H132.803V149.984L126.633 158.526H133.11V160.415H123.361ZM139.619 160.678C138.433 160.678 137.438 160.466 136.632 160.041C135.842 159.602 135.242 158.936 134.832 158.043C134.422 157.15 134.217 156.016 134.217 154.64C134.217 153.249 134.422 152.114 134.832 151.236C135.242 150.343 135.849 149.684 136.654 149.26C137.46 148.821 138.462 148.601 139.663 148.601C140.761 148.601 141.676 148.813 142.408 149.238C143.154 149.648 143.718 150.277 144.098 151.126C144.479 151.975 144.669 153.044 144.669 154.332V155.21H136.567C136.596 156.03 136.72 156.718 136.94 157.275C137.159 157.816 137.489 158.219 137.928 158.482C138.382 158.731 138.953 158.856 139.641 158.856C140.065 158.856 140.446 158.804 140.783 158.702C141.119 158.585 141.405 158.424 141.639 158.219C141.873 157.999 142.056 157.743 142.188 157.45C142.32 157.143 142.386 156.799 142.386 156.418H144.625C144.625 157.106 144.508 157.714 144.274 158.241C144.04 158.768 143.696 159.214 143.242 159.58C142.803 159.931 142.276 160.202 141.661 160.393C141.046 160.583 140.365 160.678 139.619 160.678ZM136.611 153.542H142.276C142.276 152.971 142.21 152.495 142.078 152.114C141.961 151.719 141.785 151.397 141.551 151.148C141.317 150.899 141.039 150.724 140.717 150.621C140.395 150.504 140.029 150.445 139.619 150.445C139.004 150.445 138.477 150.555 138.038 150.775C137.613 150.994 137.284 151.338 137.05 151.807C136.815 152.261 136.669 152.839 136.611 153.542ZM35.2054 201.415V195.222L29.3425 186.351H32.1532L36.457 193.026H36.5668L40.8267 186.351H43.5276L37.6647 195.222V201.415H35.2054ZM47.993 201.678C46.7926 201.678 45.7752 201.466 44.9408 201.041C44.121 200.602 43.4989 199.936 43.0744 199.043C42.6645 198.15 42.4595 197.016 42.4595 195.64C42.4595 194.249 42.6645 193.114 43.0744 192.236C43.4989 191.343 44.121 190.684 44.9408 190.26C45.7752 189.821 46.7926 189.601 47.993 189.601C49.2227 189.601 50.2474 189.821 51.0672 190.26C51.887 190.684 52.5018 191.343 52.9117 192.236C53.3362 193.114 53.5485 194.249 53.5485 195.64C53.5485 197.016 53.3362 198.15 52.9117 199.043C52.5018 199.936 51.887 200.602 51.0672 201.041C50.2474 201.466 49.2227 201.678 47.993 201.678ZM47.993 199.79C48.725 199.79 49.3252 199.651 49.7936 199.372C50.2621 199.08 50.6061 198.64 50.8256 198.055C51.0599 197.469 51.177 196.73 51.177 195.837V195.442C51.177 194.549 51.0599 193.81 50.8256 193.224C50.6061 192.639 50.2621 192.207 49.7936 191.929C49.3252 191.636 48.725 191.489 47.993 191.489C47.2757 191.489 46.6828 191.636 46.2144 191.929C45.746 192.207 45.3946 192.639 45.1604 193.224C44.9408 193.81 44.831 194.549 44.831 195.442V195.837C44.831 196.73 44.9408 197.469 45.1604 198.055C45.3946 198.64 45.746 199.08 46.2144 199.372C46.6828 199.651 47.2757 199.79 47.993 199.79ZM59.4994 201.678C58.3868 201.678 57.4865 201.385 56.7985 200.8C56.1105 200.2 55.7664 199.182 55.7664 197.748V189.864H58.0501V197.396C58.0501 197.835 58.1013 198.201 58.2038 198.494C58.3209 198.787 58.482 199.021 58.6869 199.197C58.8918 199.372 59.1334 199.497 59.4115 199.57C59.6897 199.643 59.9971 199.68 60.3338 199.68C60.8608 199.68 61.3365 199.555 61.7611 199.307C62.2002 199.043 62.5516 198.684 62.8151 198.231C63.0786 197.762 63.2103 197.228 63.2103 196.628V189.864H65.494V201.415H63.6275L63.4299 199.768H63.2762C62.9981 200.192 62.6687 200.544 62.2881 200.822C61.9075 201.1 61.4829 201.312 61.0145 201.458C60.5607 201.605 60.0556 201.678 59.4994 201.678ZM68.4422 201.415V189.864H70.3307L70.5283 191.731H70.66C70.7918 191.365 70.9601 191.021 71.1651 190.699C71.3847 190.377 71.6628 190.113 71.9995 189.908C72.3508 189.703 72.7753 189.601 73.2731 189.601C73.5073 189.601 73.7122 189.623 73.8879 189.667C74.0782 189.711 74.2246 189.747 74.3271 189.777V191.929H73.5585C73.0901 191.929 72.6729 192.002 72.3069 192.148C71.9556 192.295 71.6555 192.514 71.4066 192.807C71.1724 193.085 70.9967 193.429 70.8796 193.839C70.7771 194.249 70.7259 194.71 70.7259 195.222V201.415H68.4422ZM80.415 201.415V186.351H82.8743V199.285H90.3841V201.415H80.415ZM97.1419 201.678C95.9416 201.678 94.9242 201.466 94.0897 201.041C93.27 200.602 92.6478 199.936 92.2233 199.043C91.8134 198.15 91.6084 197.016 91.6084 195.64C91.6084 194.249 91.8134 193.114 92.2233 192.236C92.6478 191.343 93.27 190.684 94.0897 190.26C94.9242 189.821 95.9416 189.601 97.1419 189.601C98.3716 189.601 99.3963 189.821 100.216 190.26C101.036 190.684 101.651 191.343 102.061 192.236C102.485 193.114 102.697 194.249 102.697 195.64C102.697 197.016 102.485 198.15 102.061 199.043C101.651 199.936 101.036 200.602 100.216 201.041C99.3963 201.466 98.3716 201.678 97.1419 201.678ZM97.1419 199.79C97.8739 199.79 98.4741 199.651 98.9425 199.372C99.411 199.08 99.755 198.64 99.9746 198.055C100.209 197.469 100.326 196.73 100.326 195.837V195.442C100.326 194.549 100.209 193.81 99.9746 193.224C99.755 192.639 99.411 192.207 98.9425 191.929C98.4741 191.636 97.8739 191.489 97.1419 191.489C96.4246 191.489 95.8318 191.636 95.3633 191.929C94.8949 192.207 94.5435 192.639 94.3093 193.224C94.0897 193.81 93.9799 194.549 93.9799 195.442V195.837C93.9799 196.73 94.0897 197.469 94.3093 198.055C94.5435 198.64 94.8949 199.08 95.3633 199.372C95.8318 199.651 96.4246 199.79 97.1419 199.79ZM109.944 201.678C108.743 201.678 107.726 201.466 106.892 201.041C106.072 200.602 105.45 199.936 105.025 199.043C104.615 198.15 104.41 197.016 104.41 195.64C104.41 194.249 104.615 193.114 105.025 192.236C105.45 191.343 106.072 190.684 106.892 190.26C107.726 189.821 108.743 189.601 109.944 189.601C111.173 189.601 112.198 189.821 113.018 190.26C113.838 190.684 114.453 191.343 114.862 192.236C115.287 193.114 115.499 194.249 115.499 195.64C115.499 197.016 115.287 198.15 114.862 199.043C114.453 199.936 113.838 200.602 113.018 201.041C112.198 201.466 111.173 201.678 109.944 201.678ZM109.944 199.79C110.676 199.79 111.276 199.651 111.744 199.372C112.213 199.08 112.557 198.64 112.776 198.055C113.011 197.469 113.128 196.73 113.128 195.837V195.442C113.128 194.549 113.011 193.81 112.776 193.224C112.557 192.639 112.213 192.207 111.744 191.929C111.276 191.636 110.676 191.489 109.944 191.489C109.227 191.489 108.634 191.636 108.165 191.929C107.697 192.207 107.345 192.639 107.111 193.224C106.892 193.81 106.782 194.549 106.782 195.442V195.837C106.782 196.73 106.892 197.469 107.111 198.055C107.345 198.64 107.697 199.08 108.165 199.372C108.634 199.651 109.227 199.79 109.944 199.79ZM117.827 201.415V185.539H120.111V195.134L124.656 189.864H127.357L123.448 194.344L127.577 201.415H124.942L121.977 196.013L120.111 197.857V201.415H117.827Z" fill="#FEF9F3"/>
<line x1="169.656" y1="11.8706" x2="313.679" y2="11.8706" stroke="white" stroke-width="1.74221"/>
<line x1="314.55" y1="12.7412" x2="314.55" y2="75.4608" stroke="white" stroke-width="1.74221"/>
<line x1="313.679" y1="76.3323" x2="169.656" y2="76.3323" stroke="white" stroke-width="1.74221"/>
<line x1="168.785" y1="75.4612" x2="168.785" y2="12.7416" stroke="white" stroke-width="1.74221"/>
<line x1="180.11" y1="23.4856" x2="324.132" y2="23.4856" stroke="white" stroke-width="1.74221"/>
<line x1="325.004" y1="24.3564" x2="325.004" y2="87.076" stroke="white" stroke-width="1.74221"/>
<line x1="324.132" y1="87.9465" x2="180.11" y2="87.9465" stroke="white" stroke-width="1.74221"/>
<line x1="179.239" y1="87.0754" x2="179.239" y2="24.3559" stroke="white" stroke-width="1.74221"/>
<path d="M202.65 35.3392H221.977L222.348 42.6983H221.679C220.639 40.1957 219.548 38.486 218.408 37.5692C217.269 36.6277 215.596 36.1569 213.391 36.1569H212.09V47.6415H213.354C214.518 47.6415 215.497 47.2079 216.29 46.3407C217.083 45.4487 217.64 44.2593 217.962 42.7726H218.52V53.7741H217.888C217.442 51.9157 216.835 50.5901 216.067 49.7972C215.324 49.0043 214.295 48.6079 212.982 48.6079H212.09V60.5385H213.502C215.782 60.5385 217.715 59.8571 219.3 58.4943C220.911 57.1315 222.014 55.3847 222.608 53.2538H223.352L223.054 61.3562H202.65V60.5385H204.842V36.1569H202.65V35.3392ZM232.979 53.6626C232.979 56.2643 233.115 57.9988 233.388 58.866C233.66 59.7085 234.156 60.1297 234.874 60.1297C235.618 60.1297 236.25 59.8076 236.77 59.1633C237.315 58.5191 237.588 57.5652 237.588 56.3015V48.199C237.588 47.1336 237.377 46.2292 236.956 45.4858C236.535 44.7425 235.915 44.3708 235.097 44.3708C234.28 44.3708 233.722 44.9159 233.425 46.0062C233.128 47.0964 232.979 49.0043 232.979 51.7299V53.6626ZM238.071 61.3562L237.662 58.7545C236.819 60.7367 235.11 61.7279 232.533 61.7279C230.402 61.7279 228.742 60.9598 227.552 59.4235C226.388 57.8873 225.806 55.5953 225.806 52.5476C225.806 46.3778 228.259 43.293 233.165 43.293C235.345 43.293 236.782 43.9 237.476 45.1142V34.1498H235.209V33.4808H244.501V60.6872H246.322V61.3562H238.071ZM262.188 41.7319L263.229 41.1001C263.378 40.332 263.08 39.9479 262.337 39.9479C261.271 39.9479 260.739 40.7656 260.739 42.401C260.739 43.0452 260.825 43.7885 260.999 44.631C262.882 45.8947 263.824 47.5176 263.824 49.4999C263.824 51.4574 263.142 52.9812 261.779 54.0714C260.417 55.1617 258.571 55.7068 256.241 55.7068C255.275 55.7068 254.272 55.6077 253.231 55.4095C252.141 56.1032 251.596 56.6236 251.596 56.9705C251.596 57.3174 252.388 57.4908 253.974 57.4908H257.765C263.39 57.4908 266.202 59.5102 266.202 63.5491C266.202 65.7295 265.347 67.4516 263.638 68.7153C261.953 70.0038 259.314 70.648 255.721 70.648C249.601 70.648 246.541 69.3224 246.541 66.6711C246.541 65.234 247.495 64.2428 249.403 63.6977L251.633 64.7012C251.434 65.4198 251.335 66.1012 251.335 66.7454C251.335 68.8764 252.921 69.9418 256.093 69.9418C258.025 69.9418 259.512 69.5825 260.553 68.864C261.593 68.1454 262.114 67.2534 262.114 66.1879C262.114 65.1225 261.792 64.4039 261.147 64.0322C260.528 63.6853 259.277 63.5119 257.394 63.5119H253.788C251.781 63.5119 250.344 63.1774 249.477 62.5084C248.61 61.8394 248.176 61.0217 248.176 60.0554C248.176 59.0642 248.486 58.2465 249.105 57.6023C249.725 56.9333 250.827 56.1156 252.413 55.1493C249.539 54.3316 248.102 52.4485 248.102 49.4999C248.102 47.6415 248.771 46.1424 250.109 45.0027C251.447 43.8629 253.454 43.293 256.13 43.293C257.741 43.293 259.116 43.6027 260.255 44.2221C260.107 43.5531 260.032 42.9461 260.032 42.401C260.032 41.0134 260.404 40.0099 261.147 39.3904C261.891 38.771 262.721 38.4612 263.638 38.4612C264.554 38.4612 265.285 38.709 265.831 39.2046C266.4 39.6754 266.685 40.332 266.685 41.1744C266.685 42.0169 266.462 42.6487 266.016 43.07C265.57 43.4664 265.025 43.6646 264.381 43.6646C263.762 43.6646 263.241 43.5036 262.82 43.1815C262.424 42.8346 262.213 42.3514 262.188 41.7319ZM254.309 48.6822V50.6892C254.309 52.3494 254.445 53.4768 254.718 54.0714C255.015 54.6661 255.449 54.9635 256.018 54.9635C256.613 54.9635 257.034 54.6785 257.282 54.1086C257.555 53.5139 257.691 52.3122 257.691 50.5034V48.6822C257.691 46.7495 257.567 45.4858 257.319 44.8912C257.071 44.2717 256.65 43.962 256.056 43.962C255.486 43.962 255.052 44.2841 254.755 44.9283C254.457 45.5478 254.309 46.7991 254.309 48.6822ZM275.352 61.7279C272.156 61.7279 269.752 60.9102 268.142 59.2748C266.556 57.6147 265.763 55.3227 265.763 52.3989C265.763 49.4503 266.655 47.1955 268.439 45.6345C270.248 44.0735 272.54 43.293 275.315 43.293C280.94 43.293 283.641 46.1177 283.418 51.7671H272.936V53.2166C272.936 55.6448 273.246 57.4784 273.866 58.7173C274.485 59.9562 275.563 60.5757 277.099 60.5757C279.973 60.5757 281.857 59.0394 282.749 55.967L283.418 56.0785C282.947 57.8625 282.092 59.2501 280.853 60.2412C279.639 61.2323 277.805 61.7279 275.352 61.7279ZM272.974 51.0237H276.802V49.2025C276.802 47.1955 276.678 45.8327 276.43 45.1142C276.207 44.3708 275.736 43.9991 275.018 43.9991C274.324 43.9991 273.804 44.3956 273.457 45.1885C273.135 45.9566 272.974 47.2946 272.974 49.2025V51.0237Z" fill="white"/>
</svg>
